<svg width="340px" height="px" viewBox="0 0 1817 664" fill="none" xmlns="http://www.w3.org/2000/svg">
<g clip-path="url(#clip0_2531_400)">
<g clip-path="url(#clip1_2531_400)">
<path d="M865.734 286.001C855.828 229.306 822.505 196.909 775.373 196.909C753.458 196.909 735.145 204.409 722.837 215.508L723.137 126.416C723.137 121.017 718.634 116.517 713.23 116.517H669.1C663.696 116.517 659.193 121.017 659.193 126.416V125.517L658.593 391.89L657.692 437.786V437.186C657.692 442.585 662.195 447.085 667.599 447.085H667.299H753.758C843.219 447.085 883.447 387.091 865.734 286.001ZM754.959 398.789H732.744H733.044C727.64 398.789 723.137 394.29 723.137 388.89V381.991L723.437 274.902C723.437 256.304 739.648 245.205 757.36 245.205C790.083 245.205 798.489 277.301 802.992 302.499C813.199 361.293 786.781 398.789 754.959 398.789Z" fill="#030D3F"/>
<path d="M1239.79 430.286C1239.79 435.686 1243.99 439.885 1249.4 440.185H1284.52C1289.92 439.885 1294.13 435.686 1294.13 430.286V393.09V259.603L1294.73 207.108C1294.73 201.709 1290.22 197.209 1284.82 197.209H1204.97C1110.4 197.209 1070.17 265.303 1086.99 360.993C1095.99 411.388 1125.41 446.785 1175.25 446.785C1204.67 446.785 1225.98 438.086 1239.79 416.488V430.286ZM1192.66 399.689C1166.24 399.689 1154.83 378.691 1150.63 353.494C1143.42 311.798 1147.93 246.705 1199.26 244.605H1220.88H1220.58C1225.98 244.605 1230.48 249.104 1230.48 254.504V256.604L1230.78 364.893C1229.88 383.191 1216.97 399.689 1192.66 399.689Z" fill="#030D3F"/>
<path d="M1444.23 256.004C1449.63 256.904 1454.44 255.404 1455.34 250.004L1461.94 214.908C1463.44 210.408 1461.34 205.609 1457.14 203.209C1447.83 199.309 1436.12 196.909 1424.42 196.909C1402.5 196.909 1380.59 209.508 1370.08 237.405L1363.17 207.408C1361.67 201.709 1358.37 196.609 1352.97 196.31H1327.15C1321.75 196.31 1317.54 200.809 1317.54 206.209L1316.94 244.605L1316.64 430.586C1316.94 435.686 1321.15 439.885 1326.25 440.185H1371.88C1377.28 439.885 1381.49 435.686 1381.49 430.286L1381.79 293.5C1382.39 265.603 1398.3 252.104 1421.41 252.104C1429.82 252.104 1437.92 253.604 1445.13 256.304L1444.23 256.004Z" fill="#030D3F"/>
<path d="M1796.37 256.004C1801.77 256.904 1806.58 255.404 1807.48 250.004L1814.08 214.908C1815.58 210.408 1813.48 205.609 1809.28 203.209C1799.97 199.309 1788.26 196.909 1776.56 196.909C1754.64 196.909 1732.73 209.508 1722.22 237.405L1715.31 207.408C1713.81 201.709 1710.51 196.609 1705.11 196.31H1679.29C1673.89 196.31 1669.68 200.809 1669.68 206.209L1669.08 244.605L1668.78 430.586C1669.08 435.686 1673.29 439.885 1678.39 440.185H1723.42C1728.82 439.885 1733.03 435.686 1733.03 430.286L1733.33 293.5C1733.93 265.603 1749.84 252.104 1772.95 252.104C1781.36 252.104 1789.47 253.604 1796.67 256.304L1796.37 256.004Z" fill="#030D3F"/>
<path d="M1648.37 425.487C1653.17 422.787 1654.37 417.388 1651.97 412.588L1636.96 385.891C1634.26 381.391 1628.56 380.491 1624.05 382.891C1611.74 390.39 1595.53 397.59 1575.42 397.59C1540.6 397.59 1527.09 373.892 1522.58 348.694C1577.82 346.895 1663.98 334.296 1649.87 254.204C1643.57 218.207 1613.54 196.909 1569.71 196.909C1482.66 196.909 1443.63 272.802 1457.74 352.594C1467.35 407.189 1501.87 447.085 1567.01 447.085C1606.64 447.085 1634.56 434.486 1648.37 425.487ZM1568.21 243.105C1579.92 243.105 1590.43 249.704 1592.53 262.303C1597.63 290.8 1558.61 300.099 1530.69 302.199C1525.28 302.199 1521.68 298.899 1521.68 292.3C1526.19 268.902 1538.79 243.105 1568.21 243.105Z" fill="#030D3F"/>
<path d="M1074.08 425.487C1078.88 422.787 1080.08 417.388 1077.68 412.588L1062.67 385.891C1059.97 381.391 1054.26 380.491 1049.76 382.891C1037.45 390.39 1021.24 397.59 1001.13 397.59C966.303 397.59 952.794 373.892 948.291 348.694C1003.53 346.895 1089.69 334.296 1075.58 254.204C1069.27 218.207 1039.25 196.909 995.423 196.909C908.364 196.909 869.337 272.802 883.447 352.594C893.053 407.189 927.577 447.085 992.721 447.085C1032.65 447.085 1060.27 434.486 1074.08 425.487ZM994.222 243.105C1005.93 243.105 1016.44 249.704 1018.54 262.303C1023.64 290.8 984.616 300.099 956.697 302.199C951.293 302.199 947.69 298.899 947.69 292.3C951.893 268.902 964.802 243.105 994.222 243.105Z" fill="#030D3F"/>
<path d="M78.4946 227.473L87.9891 237.143C89.7694 238.901 91.8463 239.78 94.2199 239.78C94.5166 239.78 94.8133 239.78 95.11 239.78C96.8902 239.487 98.6705 238.901 100.154 237.436C101.934 235.971 102.824 233.626 102.824 231.575C102.824 229.231 101.934 227.179 100.451 225.421L90.6595 215.458C87.099 220.147 82.9452 224.249 78.4946 227.473Z" fill="url(#paint0_linear_2531_400)"/>
<path d="M203.935 121.389L213.726 148.175C214.913 151.413 218.176 153.768 221.737 153.768C222.627 153.768 223.814 153.473 224.704 153.179C229.154 151.707 231.528 146.703 229.748 142.288L219.957 115.797C214.913 118.446 209.572 120.212 203.935 121.389Z" fill="url(#paint1_linear_2531_400)"/>
<path d="M355.595 113.571L344.206 145.022C342.708 149.473 344.806 154.517 349.301 156C350.2 156.297 351.399 156.593 352.298 156.593H352.598C356.194 156.593 359.191 154.22 360.39 150.956L371.779 119.802C368.182 118.912 364.586 118.022 360.99 116.539C359.191 115.352 357.393 114.462 355.595 113.571Z" fill="url(#paint2_linear_2531_400)"/>
<path d="M463.549 269.58C464.143 269.58 464.44 269.58 465.033 269.58C467.703 269.58 470.077 268.382 471.857 266.284L482.242 253.397C477.198 250.4 472.747 246.504 469.187 241.708L458.209 255.195C455.242 258.791 455.835 264.486 459.396 267.483C460.582 268.681 462.066 269.281 463.549 269.58Z" fill="url(#paint3_linear_2531_400)"/>
<path d="M466.619 311.484C456.126 307.574 444.734 306.07 433.641 306.972C422.549 307.875 411.457 311.484 401.264 316.898C400.064 317.5 398.566 317.199 397.966 315.996C397.366 314.793 397.666 313.59 398.566 312.687C402.763 309.379 407.26 306.672 412.056 304.265V290.73C412.056 219.746 354.496 161.996 283.744 161.996C224.385 161.996 173.42 202 159.03 259.148C163.227 260.652 167.424 262.457 171.322 264.562C179.116 268.472 186.311 273.586 192.907 279.601C199.203 285.617 204.899 292.234 209.396 299.754C210.595 301.859 209.995 304.265 207.897 305.468C206.098 306.672 203.699 306.07 202.5 304.566C197.404 298.25 192.008 292.836 185.712 288.023C179.716 283.211 172.821 279 165.925 275.992C151.835 269.675 136.246 266.668 120.956 267.871C105.667 268.773 90.6772 274.187 77.7861 282.308C71.4904 286.519 65.4945 291.633 60.398 297.347C55.0017 303.062 50.8046 309.379 47.2071 316.297C33.1168 343.668 33.7163 378.258 50.205 404.426C57.9997 417.66 69.3918 428.488 82.5828 436.309C95.7737 444.129 111.063 448.039 126.652 448.34L442.036 449.844C463.921 449.844 485.506 439.316 498.397 421.57C511.888 404.125 515.785 380.363 509.789 359.008C504.093 337.351 487.604 319.004 466.619 311.484Z" fill="url(#paint4_linear_2531_400)"/>
<path d="M168.407 103.791C175.055 106.511 181.703 108.022 188.654 108.022C210.11 108.022 229.451 95.0275 237.912 75.3846C249.093 48.1868 236.401 17.0605 209.203 5.87915C202.857 3.15937 195.907 1.64838 188.956 1.64838C167.5 1.64838 148.159 14.6429 139.698 34.2857C134.258 47.2802 134.258 61.7857 139.698 75.0824C145.137 88.077 155.412 98.3517 168.407 103.791Z" fill="#9DACE3"/>
<path d="M366.374 103.791C373.022 106.511 379.67 108.022 386.621 108.022C408.077 108.022 427.418 95.0275 435.879 75.3846C447.061 48.1868 434.368 17.0605 407.17 5.87915C400.522 3.15937 393.874 1.64838 386.923 1.64838C365.467 1.64838 346.127 14.6429 337.665 34.2857C326.484 61.4835 339.176 92.6099 366.374 103.791Z" fill="#9DACE3"/>
<path d="M536.401 192.253C531.566 184.396 524.011 178.654 514.945 176.236C512.225 175.632 509.203 175.028 506.484 175.028C490.467 175.028 476.566 185.907 472.638 201.319C468.105 220.055 479.286 238.791 498.022 243.626C500.742 244.231 503.764 244.835 506.484 244.835C522.5 244.835 536.401 233.956 540.33 218.544C542.747 209.78 541.236 200.412 536.401 192.253Z" fill="#9DACE3"/>
<path d="M87.1979 192.418C92.9397 169.148 78.7364 145.275 55.4671 139.533C51.8408 138.626 48.2144 138.324 44.8902 138.324C24.9452 138.324 7.41769 151.923 2.58253 171.264C-0.137254 182.445 1.67593 194.231 7.41769 204.203C13.4616 214.176 22.8298 221.429 34.3133 224.148C37.9397 225.055 41.566 225.357 44.8902 225.357C65.1375 225.659 82.3628 212.06 87.1979 192.418Z" fill="#9DACE3"/>
</g>
</g>
<path d="M945.704 544.701H956.832L978.585 602.971L997.949 544.701H1009.08C990.468 596.695 980.848 623.501 980.22 625.118C977.328 632.479 973.828 637.861 969.72 641.265C965.613 644.712 960.206 646.435 953.5 646.435C951.488 646.435 949.371 646.265 947.15 645.924L946.521 636.861C948.868 637.032 950.628 637.117 951.802 637.117C956.538 637.117 960.122 636.223 962.553 634.436C965.026 632.692 967.226 629.394 969.154 624.543C970.873 620.076 972.151 616.629 972.99 614.204L945.704 544.701Z" fill="#030D3F"/>
<path d="M910.058 552.104C903.394 552.104 898.28 554.444 894.718 559.125C891.197 563.762 889.437 570.592 889.437 579.612C889.437 598.078 896.289 607.311 909.995 607.311C913.39 607.311 916.366 606.609 918.923 605.205C921.522 603.758 923.554 601.759 925.021 599.206C926.53 596.61 927.641 593.696 928.354 590.462C929.108 587.228 929.485 583.633 929.485 579.676C929.485 574.315 928.857 569.634 927.599 565.635C926.384 561.635 924.288 558.38 921.312 555.87C918.336 553.359 914.585 552.104 910.058 552.104ZM911.127 543.233C917.246 543.233 922.528 544.807 926.97 547.956C931.413 551.104 934.745 555.38 936.967 560.784C939.188 566.188 940.299 572.379 940.299 579.357C940.299 586.59 939.188 592.951 936.967 598.44C934.787 603.929 931.455 608.268 926.97 611.46C922.528 614.608 917.205 616.183 911.001 616.183C906.433 616.183 902.262 615.183 898.49 613.183C894.718 611.183 891.574 608.46 889.059 605.014L887.991 614.715H879V517.512L889.499 516.874V540.042C889.499 545.743 889.416 550.636 889.248 554.721C891.679 551.189 894.822 548.402 898.679 546.36C902.577 544.275 906.726 543.233 911.127 543.233Z" fill="#030D3F"/>
<path d="M1313.81 610.207C1307.81 607.104 1302.77 602.388 1299.25 596.578C1295.73 590.768 1293.86 584.09 1293.86 577.28C1293.86 570.47 1295.73 563.792 1299.25 557.982C1302.77 552.172 1307.81 547.456 1313.81 544.353C1320.28 541.063 1327.44 539.404 1334.68 539.518C1341.64 539.371 1348.53 541.037 1354.67 544.353C1360.28 547.424 1364.72 552.298 1367.27 558.204L1350.89 567.056C1347.11 560.33 1341.66 556.968 1334.56 556.968C1332.03 556.887 1329.52 557.329 1327.17 558.267C1324.82 559.205 1322.69 560.619 1320.91 562.421C1319.06 564.401 1317.62 566.74 1316.69 569.295C1315.77 571.851 1315.36 574.571 1315.5 577.289C1315.36 580.005 1315.76 582.723 1316.69 585.277C1317.62 587.83 1319.05 590.165 1320.91 592.139C1322.69 593.941 1324.82 595.355 1327.17 596.293C1329.52 597.231 1332.03 597.673 1334.56 597.592C1337.95 597.671 1341.3 596.762 1344.19 594.973C1347.09 593.184 1349.41 590.591 1350.89 587.504L1367.24 596.593C1364.6 602.357 1360.2 607.107 1354.67 610.134C1348.52 613.513 1341.61 615.205 1334.61 615.042C1327.39 615.144 1320.26 613.485 1313.81 610.207Z" fill="#030D3F"/>
<path d="M1450.1 540.608L1417.33 618.44C1413.99 626.923 1409.87 632.878 1404.98 636.308C1399.73 639.861 1393.52 641.672 1387.2 641.488C1383.4 641.461 1379.62 640.848 1376 639.67C1372.7 638.678 1369.63 637.001 1367 634.745L1374.71 619.622C1376.34 621.088 1378.22 622.245 1380.25 623.039C1382.26 623.82 1384.39 624.233 1386.54 624.257C1389.05 624.368 1391.52 623.626 1393.56 622.148C1395.71 620.234 1397.38 617.828 1398.42 615.132L1398.69 614.441L1367.27 540.608H1389.02L1409.35 590.321L1429.88 540.554L1450.1 540.608Z" fill="#030D3F"/>
<path d="M1470.74 610.208C1464.74 607.105 1459.7 602.389 1456.18 596.579C1452.66 590.77 1450.8 584.092 1450.8 577.282C1450.8 570.471 1452.66 563.794 1456.18 557.984C1459.7 552.174 1464.74 547.458 1470.74 544.355C1477.21 541.065 1484.37 539.406 1491.61 539.52C1498.6 539.36 1505.51 541.026 1511.67 544.355C1517.25 547.44 1521.64 552.314 1524.15 558.205L1507.82 567.057C1504.04 560.332 1498.59 556.969 1491.47 556.969C1488.95 556.891 1486.44 557.335 1484.1 558.272C1481.75 559.21 1479.62 560.622 1477.84 562.422C1475.99 564.402 1474.56 566.741 1473.63 569.297C1472.7 571.853 1472.29 574.572 1472.44 577.291C1472.29 580.007 1472.69 582.725 1473.62 585.278C1474.55 587.831 1475.99 590.167 1477.84 592.141C1479.63 593.948 1481.77 595.364 1484.12 596.302C1486.47 597.24 1488.99 597.68 1491.52 597.594C1494.92 597.676 1498.27 596.768 1501.17 594.979C1504.07 593.19 1506.4 590.596 1507.87 587.506L1524.21 596.594C1521.62 602.383 1517.24 607.167 1511.73 610.226C1505.58 613.605 1498.66 615.297 1491.67 615.134C1484.4 615.229 1477.22 613.538 1470.74 610.208Z" fill="#030D3F"/>
<path d="M1549.14 610.207C1543.25 607.148 1538.32 602.497 1534.89 596.775C1531.43 590.885 1529.65 584.139 1529.76 577.29C1529.65 570.434 1531.43 563.683 1534.89 557.786C1538.32 552.064 1543.25 547.414 1549.14 544.354C1555.51 541.065 1562.58 539.405 1569.74 539.519C1576.87 539.396 1583.92 541.057 1590.26 544.354C1596.12 547.426 1601.03 552.075 1604.43 557.786C1607.9 563.683 1609.68 570.434 1609.57 577.29C1609.68 584.139 1607.9 590.885 1604.43 596.775C1601.03 602.486 1596.12 607.135 1590.26 610.207C1583.92 613.505 1576.87 615.166 1569.74 615.042C1562.58 615.157 1555.51 613.497 1549.14 610.207ZM1583.04 592.031C1586.64 587.99 1588.5 582.677 1588.23 577.253C1588.5 571.824 1586.64 566.506 1583.04 562.458C1581.33 560.652 1579.26 559.233 1576.97 558.293C1574.67 557.354 1572.21 556.914 1569.74 557.005C1567.25 556.918 1564.78 557.358 1562.47 558.298C1560.17 559.237 1558.08 560.654 1556.36 562.458C1554.56 564.451 1553.16 566.785 1552.26 569.324C1551.36 571.864 1550.96 574.559 1551.1 577.253C1550.95 579.962 1551.33 582.674 1552.23 585.23C1553.13 587.787 1554.53 590.136 1556.34 592.14C1558.07 593.944 1560.15 595.361 1562.45 596.3C1564.76 597.24 1567.23 597.68 1569.72 597.593C1572.18 597.676 1574.64 597.233 1576.92 596.293C1579.2 595.354 1581.27 593.938 1582.97 592.14L1583.04 592.031Z" fill="#030D3F"/>
<path d="M1697.28 512.798V613.95H1677.16V605.498C1671.94 611.86 1664.38 615.041 1654.47 615.041C1647.99 615.132 1641.6 613.536 1635.91 610.406C1630.43 607.338 1625.94 602.753 1622.96 597.191C1619.7 591.052 1618.07 584.163 1618.23 577.197C1618.1 570.292 1619.73 563.47 1622.96 557.385C1625.96 551.801 1630.48 547.207 1636 544.152C1641.69 541.022 1648.08 539.425 1654.56 539.517C1663.83 539.517 1671.08 542.474 1676.3 548.387V512.798H1697.28ZM1671.35 592.138C1673.15 590.15 1674.55 587.82 1675.45 585.283C1676.36 582.747 1676.76 580.054 1676.62 577.361C1676.75 574.665 1676.36 571.969 1675.45 569.43C1674.55 566.89 1673.15 564.557 1671.35 562.565C1667.81 559.025 1663.03 557.039 1658.05 557.039C1653.07 557.039 1648.29 559.025 1644.75 562.565C1642.95 564.557 1641.55 566.89 1640.65 569.43C1639.74 571.969 1639.34 574.665 1639.47 577.361C1639.34 580.054 1639.74 582.747 1640.65 585.283C1641.55 587.82 1642.95 590.15 1644.75 592.138C1648.29 595.678 1653.07 597.664 1658.05 597.664C1663.03 597.664 1667.81 595.678 1671.35 592.138Z" fill="#030D3F"/>
<path d="M1787.22 583.286H1732.27C1733.15 587.653 1735.66 591.509 1739.29 594.046C1743.36 596.79 1748.18 598.17 1753.07 597.991C1756.49 598.051 1759.91 597.478 1763.13 596.3C1766.19 595.054 1768.96 593.2 1771.29 590.847L1782.51 603.116C1775.66 611.078 1765.7 615.052 1752.62 615.04C1745.09 615.189 1737.63 613.532 1730.86 610.205C1724.83 607.223 1719.77 602.562 1716.28 596.773C1712.81 590.883 1711.04 584.137 1711.15 577.288C1711.05 570.464 1712.81 563.745 1716.22 557.857C1719.53 552.145 1724.34 547.471 1730.13 544.352C1736.22 541.08 1743.03 539.417 1749.93 539.517C1756.65 539.421 1763.28 541.014 1769.24 544.152C1774.93 547.179 1779.64 551.79 1782.81 557.439C1786.17 563.606 1787.83 570.564 1787.64 577.597C1787.64 577.833 1787.49 579.741 1787.22 583.286ZM1737.94 559.656C1734.64 562.496 1732.52 566.487 1732 570.835H1767.78C1767.23 566.518 1765.11 562.56 1761.83 559.729C1758.51 556.921 1754.28 555.44 1749.95 555.567C1745.59 555.436 1741.32 556.901 1737.94 559.693V559.656Z" fill="#030D3F"/>
<path fill-rule="evenodd" clip-rule="evenodd" d="M1221.68 527.193L1157.07 489.495C1155.3 488.459 1153.28 487.914 1151.23 487.914C1149.17 487.914 1147.16 488.459 1145.38 489.495L1132.16 497.129L1208.41 541.714V608.376L1189.35 619.492L1132.16 586.16V575.472C1134.27 573.493 1135.73 570.916 1136.36 568.081C1136.98 565.245 1136.74 562.285 1135.67 559.59C1134.59 556.895 1132.73 554.592 1130.34 552.985C1127.94 551.379 1125.12 550.543 1122.24 550.589C1119.36 550.635 1116.56 551.561 1114.22 553.244C1111.87 554.926 1110.09 557.288 1109.1 560.016C1108.11 562.743 1107.96 565.71 1108.68 568.524C1109.39 571.338 1110.93 573.867 1113.1 575.778V597.276L1189.37 641.723L1221.68 622.897C1223.45 621.862 1224.93 620.374 1225.96 618.581C1226.99 616.788 1227.53 614.753 1227.53 612.682V537.408C1227.53 535.337 1226.99 533.302 1225.96 531.509C1224.93 529.716 1223.45 528.228 1221.68 527.193Z" fill="#030D3F"/>
<path fill-rule="evenodd" clip-rule="evenodd" d="M1189.36 574.039V552.815L1113.08 508.369L1080.79 527.179C1079.01 528.218 1077.54 529.71 1076.51 531.506C1075.49 533.301 1074.95 535.337 1074.95 537.409V612.683C1074.95 614.753 1075.49 616.788 1076.51 618.581C1077.54 620.374 1079.01 621.863 1080.79 622.898L1145.38 660.504C1147.15 661.54 1149.17 662.086 1151.22 662.086C1153.28 662.086 1155.29 661.54 1157.07 660.504L1170.24 652.87L1094.02 608.378V541.715L1113.08 530.6L1170.24 563.931V574.237C1168.13 576.203 1166.66 578.77 1166.02 581.598C1165.38 584.426 1165.61 587.384 1166.67 590.08C1167.72 592.777 1169.57 595.086 1171.95 596.703C1174.34 598.321 1177.15 599.17 1180.03 599.14C1182.9 599.11 1185.7 598.202 1188.05 596.536C1190.4 594.869 1192.2 592.522 1193.2 589.804C1194.21 587.086 1194.37 584.124 1193.68 581.31C1192.98 578.496 1191.45 575.961 1189.3 574.039H1189.36Z" fill="#030D3F"/>
<path d="M1806.81 612.784C1811.72 612.784 1815.7 608.765 1815.7 603.808C1815.7 598.85 1811.72 594.831 1806.81 594.831C1801.89 594.831 1797.91 598.85 1797.91 603.808C1797.91 608.765 1801.89 612.784 1806.81 612.784Z" stroke="#030D3F" stroke-width="0.93017"/>
<path d="M1806.26 602.99C1806.82 602.99 1807.22 602.878 1807.46 602.665C1807.7 602.462 1807.83 602.118 1807.83 601.631C1807.83 601.144 1807.7 600.819 1807.46 600.606C1807.22 600.403 1806.82 600.302 1806.26 600.302H1805.14V602.99H1806.26ZM1805.14 604.846V608.802H1802.46V598.345H1806.54C1807.91 598.345 1808.91 598.578 1809.54 599.044C1810.18 599.501 1810.49 600.231 1810.49 601.235C1810.49 601.925 1810.33 602.493 1810 602.939C1809.67 603.375 1809.18 603.71 1808.5 603.913C1808.88 604.004 1809.2 604.197 1809.49 604.491C1809.78 604.785 1810.07 605.231 1810.36 605.84L1811.82 608.802H1808.98L1807.71 606.205C1807.46 605.688 1807.2 605.323 1806.94 605.14C1806.67 604.947 1806.32 604.846 1805.89 604.846H1805.14Z" fill="#030D3F"/>
<defs>
<linearGradient id="paint0_linear_2531_400" x1="78.3783" y1="227.779" x2="102.672" y2="227.779" gradientUnits="userSpaceOnUse">
<stop stop-color="#00A9E2"/>
<stop offset="0.1882" stop-color="#1981D7"/>
<stop offset="0.4572" stop-color="#394DC8"/>
<stop offset="0.6919" stop-color="#5027BE"/>
<stop offset="0.8802" stop-color="#5F10B7"/>
<stop offset="0.9987" stop-color="#6408B5"/>
</linearGradient>
<linearGradient id="paint1_linear_2531_400" x1="203.83" y1="134.826" x2="230.394" y2="134.826" gradientUnits="userSpaceOnUse">
<stop stop-color="#00A9E2"/>
<stop offset="0.1882" stop-color="#1981D7"/>
<stop offset="0.4572" stop-color="#394DC8"/>
<stop offset="0.6919" stop-color="#5027BE"/>
<stop offset="0.8802" stop-color="#5F10B7"/>
<stop offset="0.9987" stop-color="#6408B5"/>
</linearGradient>
<linearGradient id="paint2_linear_2531_400" x1="343.566" y1="135.003" x2="371.998" y2="135.003" gradientUnits="userSpaceOnUse">
<stop stop-color="#00A9E2"/>
<stop offset="0.1882" stop-color="#1981D7"/>
<stop offset="0.4572" stop-color="#394DC8"/>
<stop offset="0.6919" stop-color="#5027BE"/>
<stop offset="0.8802" stop-color="#5F10B7"/>
<stop offset="0.9987" stop-color="#6408B5"/>
</linearGradient>
<linearGradient id="paint3_linear_2531_400" x1="456.338" y1="255.787" x2="482.18" y2="255.787" gradientUnits="userSpaceOnUse">
<stop stop-color="#00A9E2"/>
<stop offset="0.1882" stop-color="#1981D7"/>
<stop offset="0.4572" stop-color="#394DC8"/>
<stop offset="0.6919" stop-color="#5027BE"/>
<stop offset="0.8802" stop-color="#5F10B7"/>
<stop offset="0.9987" stop-color="#6408B5"/>
</linearGradient>
<linearGradient id="paint4_linear_2531_400" x1="37.5912" y1="305.7" x2="512.878" y2="305.7" gradientUnits="userSpaceOnUse">
<stop stop-color="#00A9E2"/>
<stop offset="0.1882" stop-color="#1981D7"/>
<stop offset="0.4572" stop-color="#394DC8"/>
<stop offset="0.6919" stop-color="#5027BE"/>
<stop offset="0.8802" stop-color="#5F10B7"/>
<stop offset="0.9987" stop-color="#6408B5"/>
</linearGradient>
<clipPath id="clip0_2531_400">
<rect width="1814.84" height="450" fill="white"/>
</clipPath>
<clipPath id="clip1_2531_400">
<rect width="1814.84" height="450" fill="white"/>
</clipPath>
</defs>
</svg>
