<?xml version="1.0" encoding="UTF-8"?>
<svg xmlns="http://www.w3.org/2000/svg" xmlns:xlink="http://www.w3.org/1999/xlink" width="340px" height="px" viewBox="0 0 338 84" version="1.1">
<defs>
<clipPath id="clip1">
  <path d="M 310 30 L 337.96875 30 L 337.96875 77 L 310 77 Z M 310 30 "/>
</clipPath>
<linearGradient id="linear0" gradientUnits="userSpaceOnUse" x1="78.3783" y1="227.779" x2="102.672" y2="227.779" gradientTransform="matrix(0.186226,0,0,0.186667,0,0)">
<stop offset="0" style="stop-color:rgb(0%,66.27451%,88.627451%);stop-opacity:1;"/>
<stop offset="0.1882" style="stop-color:rgb(9.803922%,50.588235%,84.313725%);stop-opacity:1;"/>
<stop offset="0.4572" style="stop-color:rgb(22.352941%,30.196078%,78.431373%);stop-opacity:1;"/>
<stop offset="0.6919" style="stop-color:rgb(31.372549%,15.294118%,74.509804%);stop-opacity:1;"/>
<stop offset="0.8802" style="stop-color:rgb(37.254902%,6.27451%,71.764706%);stop-opacity:1;"/>
<stop offset="0.9987" style="stop-color:rgb(39.215686%,3.137255%,70.980392%);stop-opacity:1;"/>
</linearGradient>
<linearGradient id="linear1" gradientUnits="userSpaceOnUse" x1="203.83" y1="134.826" x2="230.394" y2="134.826" gradientTransform="matrix(0.186226,0,0,0.186667,0,0)">
<stop offset="0" style="stop-color:rgb(0%,66.27451%,88.627451%);stop-opacity:1;"/>
<stop offset="0.1882" style="stop-color:rgb(9.803922%,50.588235%,84.313725%);stop-opacity:1;"/>
<stop offset="0.4572" style="stop-color:rgb(22.352941%,30.196078%,78.431373%);stop-opacity:1;"/>
<stop offset="0.6919" style="stop-color:rgb(31.372549%,15.294118%,74.509804%);stop-opacity:1;"/>
<stop offset="0.8802" style="stop-color:rgb(37.254902%,6.27451%,71.764706%);stop-opacity:1;"/>
<stop offset="0.9987" style="stop-color:rgb(39.215686%,3.137255%,70.980392%);stop-opacity:1;"/>
</linearGradient>
<linearGradient id="linear2" gradientUnits="userSpaceOnUse" x1="343.566" y1="135.003" x2="371.998" y2="135.003" gradientTransform="matrix(0.186226,0,0,0.186667,0,0)">
<stop offset="0" style="stop-color:rgb(0%,66.27451%,88.627451%);stop-opacity:1;"/>
<stop offset="0.1882" style="stop-color:rgb(9.803922%,50.588235%,84.313725%);stop-opacity:1;"/>
<stop offset="0.4572" style="stop-color:rgb(22.352941%,30.196078%,78.431373%);stop-opacity:1;"/>
<stop offset="0.6919" style="stop-color:rgb(31.372549%,15.294118%,74.509804%);stop-opacity:1;"/>
<stop offset="0.8802" style="stop-color:rgb(37.254902%,6.27451%,71.764706%);stop-opacity:1;"/>
<stop offset="0.9987" style="stop-color:rgb(39.215686%,3.137255%,70.980392%);stop-opacity:1;"/>
</linearGradient>
<linearGradient id="linear3" gradientUnits="userSpaceOnUse" x1="456.338" y1="255.787" x2="482.18" y2="255.787" gradientTransform="matrix(0.186226,0,0,0.186667,0,0)">
<stop offset="0" style="stop-color:rgb(0%,66.27451%,88.627451%);stop-opacity:1;"/>
<stop offset="0.1882" style="stop-color:rgb(9.803922%,50.588235%,84.313725%);stop-opacity:1;"/>
<stop offset="0.4572" style="stop-color:rgb(22.352941%,30.196078%,78.431373%);stop-opacity:1;"/>
<stop offset="0.6919" style="stop-color:rgb(31.372549%,15.294118%,74.509804%);stop-opacity:1;"/>
<stop offset="0.8802" style="stop-color:rgb(37.254902%,6.27451%,71.764706%);stop-opacity:1;"/>
<stop offset="0.9987" style="stop-color:rgb(39.215686%,3.137255%,70.980392%);stop-opacity:1;"/>
</linearGradient>
<linearGradient id="linear4" gradientUnits="userSpaceOnUse" x1="37.5909" y1="305.7" x2="512.877" y2="305.7" gradientTransform="matrix(0.186226,0,0,0.186667,0,0)">
<stop offset="0" style="stop-color:rgb(0%,66.27451%,88.627451%);stop-opacity:1;"/>
<stop offset="0.1882" style="stop-color:rgb(9.803922%,50.588235%,84.313725%);stop-opacity:1;"/>
<stop offset="0.4572" style="stop-color:rgb(22.352941%,30.196078%,78.431373%);stop-opacity:1;"/>
<stop offset="0.6919" style="stop-color:rgb(31.372549%,15.294118%,74.509804%);stop-opacity:1;"/>
<stop offset="0.8802" style="stop-color:rgb(37.254902%,6.27451%,71.764706%);stop-opacity:1;"/>
<stop offset="0.9987" style="stop-color:rgb(39.215686%,3.137255%,70.980392%);stop-opacity:1;"/>
</linearGradient>
</defs>
<g id="surface1">
<path style=" stroke:none;fill-rule:nonzero;fill:rgb(1.176471%,5.098039%,24.705882%);fill-opacity:1;" d="M 161.222656 47.414062 C 159.378906 36.832031 153.171875 30.78125 144.394531 30.78125 C 140.3125 30.78125 136.902344 32.183594 134.609375 34.253906 L 134.667969 17.625 C 134.667969 16.617188 133.828125 15.777344 132.820312 15.777344 L 124.605469 15.777344 C 123.597656 15.777344 122.757812 16.617188 122.757812 17.625 L 122.757812 17.457031 L 122.648438 67.179688 L 122.480469 75.746094 L 122.480469 75.632812 C 122.480469 76.640625 123.316406 77.484375 124.324219 77.484375 L 124.269531 77.484375 L 140.371094 77.484375 C 157.027344 77.484375 164.519531 66.285156 161.222656 47.414062 Z M 140.59375 68.46875 L 136.457031 68.46875 L 136.511719 68.46875 C 135.503906 68.46875 134.667969 67.628906 134.667969 66.621094 L 134.667969 65.332031 L 134.722656 45.339844 C 134.722656 41.871094 137.742188 39.796875 141.039062 39.796875 C 147.132812 39.796875 148.699219 45.789062 149.539062 50.492188 C 151.4375 61.46875 146.519531 68.46875 140.59375 68.46875 Z M 140.59375 68.46875 "/>
<path style=" stroke:none;fill-rule:nonzero;fill:rgb(1.176471%,5.098039%,24.705882%);fill-opacity:1;" d="M 230.882812 74.347656 C 230.882812 75.355469 231.664062 76.136719 232.671875 76.195312 L 239.210938 76.195312 C 240.214844 76.136719 241 75.355469 241 74.347656 L 241 42.484375 L 241.113281 32.6875 C 241.113281 31.679688 240.273438 30.839844 239.265625 30.839844 L 224.398438 30.839844 C 206.785156 30.839844 199.292969 43.550781 202.425781 61.410156 C 204.101562 70.820312 209.582031 77.425781 218.863281 77.425781 C 224.339844 77.425781 228.308594 75.800781 230.882812 71.769531 Z M 222.105469 68.636719 C 217.183594 68.636719 215.058594 64.714844 214.277344 60.011719 C 212.933594 52.230469 213.773438 40.078125 223.332031 39.6875 L 227.359375 39.6875 L 227.304688 39.6875 C 228.308594 39.6875 229.148438 40.527344 229.148438 41.535156 L 229.148438 41.925781 L 229.203125 62.140625 C 229.035156 65.554688 226.632812 68.636719 222.105469 68.636719 Z M 222.105469 68.636719 "/>
<path style=" stroke:none;fill-rule:nonzero;fill:rgb(1.176471%,5.098039%,24.705882%);fill-opacity:1;" d="M 268.953125 41.8125 C 269.957031 41.980469 270.855469 41.703125 271.023438 40.695312 L 272.25 34.144531 C 272.53125 33.304688 272.140625 32.40625 271.355469 31.960938 C 269.625 31.230469 267.441406 30.78125 265.265625 30.78125 C 261.183594 30.78125 257.101562 33.136719 255.144531 38.34375 L 253.859375 32.742188 C 253.578125 31.679688 252.964844 30.726562 251.957031 30.671875 L 247.148438 30.671875 C 246.144531 30.671875 245.359375 31.511719 245.359375 32.519531 L 245.25 39.6875 L 245.191406 74.402344 C 245.25 75.355469 246.03125 76.136719 246.980469 76.195312 L 255.480469 76.195312 C 256.484375 76.136719 257.269531 75.355469 257.269531 74.347656 L 257.324219 48.8125 C 257.4375 43.605469 260.398438 41.085938 264.703125 41.085938 C 266.269531 41.085938 267.777344 41.367188 269.121094 41.871094 Z M 268.953125 41.8125 "/>
<g clip-path="url(#clip1)" clip-rule="nonzero">
<path style=" stroke:none;fill-rule:nonzero;fill:rgb(1.176471%,5.098039%,24.705882%);fill-opacity:1;" d="M 334.53125 41.8125 C 335.535156 41.980469 336.433594 41.703125 336.597656 40.695312 L 337.828125 34.144531 C 338.109375 33.304688 337.71875 32.40625 336.933594 31.960938 C 335.199219 31.230469 333.019531 30.78125 330.839844 30.78125 C 326.757812 30.78125 322.679688 33.136719 320.722656 38.34375 L 319.433594 32.742188 C 319.15625 31.679688 318.542969 30.726562 317.535156 30.671875 L 312.726562 30.671875 C 311.722656 30.671875 310.9375 31.511719 310.9375 32.519531 L 310.824219 39.6875 L 310.769531 74.402344 C 310.824219 75.355469 311.609375 76.136719 312.558594 76.195312 L 320.945312 76.195312 C 321.949219 76.136719 322.734375 75.355469 322.734375 74.347656 L 322.789062 48.8125 C 322.902344 43.605469 325.867188 41.085938 330.167969 41.085938 C 331.734375 41.085938 333.246094 41.367188 334.585938 41.871094 Z M 334.53125 41.8125 "/>
</g>
<path style=" stroke:none;fill-rule:nonzero;fill:rgb(1.176471%,5.098039%,24.705882%);fill-opacity:1;" d="M 306.96875 73.449219 C 307.863281 72.945312 308.085938 71.9375 307.640625 71.042969 L 304.84375 66.058594 C 304.339844 65.21875 303.28125 65.050781 302.441406 65.5 C 300.148438 66.898438 297.128906 68.242188 293.382812 68.242188 C 286.898438 68.242188 284.382812 63.820312 283.542969 59.117188 C 293.832031 58.78125 309.875 56.429688 307.25 41.476562 C 306.074219 34.757812 300.484375 30.78125 292.320312 30.78125 C 276.109375 30.78125 268.839844 44.949219 271.46875 59.84375 C 273.257812 70.035156 279.6875 77.484375 291.816406 77.484375 C 299.199219 77.484375 304.398438 75.128906 306.96875 73.449219 Z M 292.042969 39.40625 C 294.222656 39.40625 296.179688 40.636719 296.570312 42.988281 C 297.519531 48.308594 290.253906 50.046875 285.054688 50.4375 C 284.046875 50.4375 283.375 49.820312 283.375 48.589844 C 284.214844 44.222656 286.5625 39.40625 292.042969 39.40625 Z M 292.042969 39.40625 "/>
<path style=" stroke:none;fill-rule:nonzero;fill:rgb(1.176471%,5.098039%,24.705882%);fill-opacity:1;" d="M 200.023438 73.449219 C 200.914062 72.945312 201.140625 71.9375 200.691406 71.042969 L 197.898438 66.058594 C 197.394531 65.21875 196.332031 65.050781 195.492188 65.5 C 193.199219 66.898438 190.179688 68.242188 186.4375 68.242188 C 179.949219 68.242188 177.433594 63.820312 176.597656 59.117188 C 186.882812 58.78125 202.929688 56.429688 200.300781 41.476562 C 199.125 34.757812 193.535156 30.78125 185.375 30.78125 C 169.160156 30.78125 161.894531 44.949219 164.519531 59.84375 C 166.308594 70.035156 172.738281 77.484375 184.871094 77.484375 C 192.304688 77.484375 197.449219 75.128906 200.023438 73.449219 Z M 185.148438 39.40625 C 187.332031 39.40625 189.289062 40.636719 189.679688 42.988281 C 190.628906 48.308594 183.359375 50.046875 178.160156 50.4375 C 177.15625 50.4375 176.484375 49.820312 176.484375 48.589844 C 177.265625 44.222656 179.671875 39.40625 185.148438 39.40625 Z M 185.148438 39.40625 "/>
<path style=" stroke:none;fill-rule:nonzero;fill:url(#linear0);" d="M 14.617188 42.460938 L 16.386719 44.265625 C 16.71875 44.59375 17.105469 44.757812 17.546875 44.757812 C 17.601562 44.757812 17.65625 44.757812 17.710938 44.757812 C 18.042969 44.703125 18.375 44.59375 18.652344 44.320312 C 18.984375 44.046875 19.148438 43.609375 19.148438 43.226562 C 19.148438 42.789062 18.984375 42.40625 18.707031 42.078125 L 16.882812 40.21875 C 16.21875 41.09375 15.445312 41.859375 14.617188 42.460938 Z M 14.617188 42.460938 "/>
<path style=" stroke:none;fill-rule:nonzero;fill:url(#linear1);" d="M 37.976562 22.660156 L 39.800781 27.660156 C 40.023438 28.265625 40.628906 28.703125 41.292969 28.703125 C 41.457031 28.703125 41.679688 28.648438 41.847656 28.59375 C 42.675781 28.320312 43.117188 27.382812 42.785156 26.558594 L 40.960938 21.617188 C 40.023438 22.109375 39.027344 22.441406 37.976562 22.660156 Z M 37.976562 22.660156 "/>
<path style=" stroke:none;fill-rule:nonzero;fill:url(#linear2);" d="M 66.222656 21.199219 L 64.101562 27.070312 C 63.820312 27.902344 64.210938 28.84375 65.050781 29.121094 C 65.214844 29.175781 65.441406 29.230469 65.605469 29.230469 L 65.664062 29.230469 C 66.332031 29.230469 66.890625 28.789062 67.113281 28.179688 L 69.234375 22.363281 C 68.566406 22.195312 67.894531 22.03125 67.226562 21.753906 C 66.890625 21.53125 66.554688 21.367188 66.222656 21.199219 Z M 66.222656 21.199219 "/>
<path style=" stroke:none;fill-rule:nonzero;fill:url(#linear3);" d="M 86.324219 50.320312 C 86.433594 50.320312 86.492188 50.320312 86.601562 50.320312 C 87.097656 50.320312 87.539062 50.097656 87.871094 49.707031 L 89.804688 47.300781 C 88.867188 46.742188 88.039062 46.015625 87.375 45.117188 L 85.332031 47.636719 C 84.777344 48.308594 84.886719 49.371094 85.550781 49.929688 C 85.773438 50.152344 86.046875 50.265625 86.324219 50.320312 Z M 86.324219 50.320312 "/>
<path style=" stroke:none;fill-rule:nonzero;fill:url(#linear4);" d="M 86.898438 58.144531 C 84.941406 57.414062 82.820312 57.132812 80.753906 57.300781 C 78.691406 57.46875 76.625 58.144531 74.726562 59.152344 C 74.503906 59.265625 74.222656 59.210938 74.113281 58.984375 C 74 58.761719 74.054688 58.535156 74.222656 58.367188 C 75.003906 57.75 75.84375 57.246094 76.734375 56.796875 L 76.734375 54.269531 C 76.734375 41.019531 66.015625 30.238281 52.839844 30.238281 C 41.785156 30.238281 32.296875 37.707031 29.617188 48.375 C 30.398438 48.65625 31.179688 48.992188 31.90625 49.386719 C 33.355469 50.113281 34.695312 51.070312 35.925781 52.191406 C 37.097656 53.316406 38.15625 54.550781 38.996094 55.953125 C 39.21875 56.347656 39.105469 56.796875 38.714844 57.019531 C 38.378906 57.246094 37.933594 57.132812 37.710938 56.851562 C 36.761719 55.671875 35.757812 54.664062 34.585938 53.765625 C 33.46875 52.867188 32.183594 52.078125 30.898438 51.519531 C 28.277344 50.339844 25.371094 49.777344 22.523438 50.003906 C 19.679688 50.171875 16.886719 51.179688 14.484375 52.699219 C 13.3125 53.484375 12.195312 54.4375 11.246094 55.503906 C 10.242188 56.570312 9.460938 57.75 8.792969 59.042969 C 6.167969 64.152344 6.277344 70.609375 9.347656 75.492188 C 10.800781 77.964844 12.921875 79.984375 15.378906 81.445312 C 17.835938 82.902344 20.683594 83.632812 23.585938 83.691406 L 82.320312 83.972656 C 86.394531 83.972656 90.414062 82.003906 92.8125 78.691406 C 95.328125 75.4375 96.050781 71 94.9375 67.015625 C 93.875 62.972656 90.804688 59.546875 86.898438 58.144531 Z M 86.898438 58.144531 "/>
<path style=" stroke:none;fill-rule:nonzero;fill:rgb(61.568627%,67.45098%,89.019608%);fill-opacity:1;" d="M 31.363281 19.375 C 32.601562 19.882812 33.835938 20.164062 35.132812 20.164062 C 39.128906 20.164062 42.730469 17.738281 44.304688 14.070312 C 46.386719 8.996094 44.023438 3.183594 38.960938 1.097656 C 37.777344 0.589844 36.484375 0.308594 35.1875 0.308594 C 31.191406 0.308594 27.589844 2.734375 26.015625 6.398438 C 25.003906 8.824219 25.003906 11.535156 26.015625 14.015625 C 27.027344 16.441406 28.941406 18.359375 31.363281 19.375 Z M 31.363281 19.375 "/>
<path style=" stroke:none;fill-rule:nonzero;fill:rgb(61.568627%,67.45098%,89.019608%);fill-opacity:1;" d="M 68.226562 19.375 C 69.464844 19.882812 70.703125 20.164062 72 20.164062 C 75.996094 20.164062 79.597656 17.738281 81.171875 14.070312 C 83.253906 8.996094 80.890625 3.183594 75.824219 1.097656 C 74.585938 0.589844 73.347656 0.308594 72.054688 0.308594 C 68.058594 0.308594 64.457031 2.734375 62.882812 6.398438 C 60.800781 11.476562 63.164062 17.289062 68.226562 19.375 Z M 68.226562 19.375 "/>
<path style=" stroke:none;fill-rule:nonzero;fill:rgb(61.568627%,67.45098%,89.019608%);fill-opacity:1;" d="M 99.890625 35.886719 C 98.992188 34.421875 97.585938 33.347656 95.894531 32.898438 C 95.390625 32.785156 94.828125 32.671875 94.320312 32.671875 C 91.335938 32.671875 88.75 34.703125 88.015625 37.578125 C 87.171875 41.078125 89.253906 44.574219 92.746094 45.476562 C 93.25 45.589844 93.8125 45.703125 94.320312 45.703125 C 97.304688 45.703125 99.890625 43.671875 100.625 40.792969 C 101.074219 39.160156 100.792969 37.410156 99.890625 35.886719 Z M 99.890625 35.886719 "/>
<path style=" stroke:none;fill-rule:nonzero;fill:rgb(61.568627%,67.45098%,89.019608%);fill-opacity:1;" d="M 16.238281 35.917969 C 17.308594 31.574219 14.664062 27.117188 10.328125 26.046875 C 9.652344 25.875 8.980469 25.820312 8.359375 25.820312 C 4.644531 25.820312 1.382812 28.359375 0.480469 31.96875 C -0.0273438 34.054688 0.3125 36.257812 1.382812 38.117188 C 2.507812 39.980469 4.25 41.332031 6.390625 41.839844 C 7.066406 42.011719 7.742188 42.066406 8.359375 42.066406 C 12.128906 42.121094 15.339844 39.585938 16.238281 35.917969 Z M 16.238281 35.917969 "/>
</g>
</svg>
