<?xml version="1.0" encoding="UTF-8"?>
<svg xmlns="http://www.w3.org/2000/svg" xmlns:xlink="http://www.w3.org/1999/xlink" width="340px" height="px" viewBox="0 0 339 85" version="1.1">
<defs>
<clipPath id="clip1">
  <path d="M 311 30 L 338.875 30 L 338.875 77 L 311 77 Z M 311 30 "/>
</clipPath>
</defs>
<g id="surface1">
<path style=" stroke:none;fill-rule:nonzero;fill:rgb(100%,100%,100%);fill-opacity:1;" d="M 140.871094 68.597656 L 136.746094 68.597656 L 136.792969 68.597656 C 135.765625 68.597656 134.9375 67.769531 134.925781 66.746094 L 134.925781 65.429688 L 134.929688 65.429688 L 134.957031 45.378906 C 134.953125 41.886719 137.980469 39.792969 141.292969 39.792969 C 147.386719 39.792969 148.96875 45.816406 149.796875 50.527344 C 151.75 61.617188 146.792969 68.597656 140.871094 68.597656 Z M 161.539062 47.472656 C 159.667969 36.824219 153.46875 30.800781 144.671875 30.800781 C 140.578125 30.800781 137.167969 32.199219 134.835938 34.292969 L 134.871094 17.5625 C 134.867188 16.535156 134.03125 15.699219 133 15.699219 L 124.730469 15.699219 C 123.695312 15.699219 122.859375 16.539062 122.859375 17.574219 L 122.855469 17.386719 L 122.765625 67.335938 L 122.585938 75.925781 L 122.589844 75.800781 C 122.589844 76.835938 123.425781 77.675781 124.457031 77.675781 L 124.417969 77.675781 L 140.554688 77.675781 C 157.359375 77.675781 164.871094 66.414062 161.539062 47.472656 Z M 161.539062 47.472656 "/>
<path style=" stroke:none;fill-rule:nonzero;fill:rgb(100%,100%,100%);fill-opacity:1;" d="M 222.65625 68.773438 C 217.695312 68.773438 215.609375 64.84375 214.777344 60.128906 C 213.40625 52.320312 214.296875 40.125 223.851562 39.722656 L 223.832031 39.703125 L 227.890625 39.703125 L 227.851562 39.707031 C 228.871094 39.707031 229.699219 40.523438 229.71875 41.539062 L 229.71875 41.953125 L 229.777344 62.226562 C 229.609375 65.71875 227.183594 68.773438 222.65625 68.773438 Z M 231.460938 74.539062 C 231.480469 75.53125 232.265625 76.328125 233.25 76.367188 L 239.804688 76.367188 C 240.792969 76.328125 241.585938 75.519531 241.597656 74.519531 L 241.601562 67.550781 L 241.621094 42.535156 L 241.734375 32.667969 C 241.730469 31.644531 240.90625 30.8125 239.886719 30.800781 L 224.949219 30.800781 C 207.269531 30.800781 199.757812 43.546875 202.921875 61.527344 C 204.578125 70.957031 210.101562 77.589844 219.417969 77.589844 C 224.902344 77.589844 228.878906 75.929688 231.484375 71.914062 Z M 231.460938 74.539062 "/>
<path style=" stroke:none;fill-rule:nonzero;fill:rgb(100%,100%,100%);fill-opacity:1;" d="M 269.664062 41.863281 C 270.683594 42.019531 271.59375 41.738281 271.746094 40.714844 L 272.988281 34.144531 L 272.984375 34.15625 C 273.234375 33.300781 272.847656 32.398438 272.101562 31.976562 C 270.367188 31.257812 268.183594 30.800781 266.015625 30.800781 C 261.921875 30.800781 257.804688 33.15625 255.851562 38.394531 L 254.488281 32.726562 C 254.234375 31.679688 253.585938 30.6875 252.578125 30.660156 L 247.730469 30.660156 C 246.730469 30.6875 245.933594 31.496094 245.914062 32.5 L 245.808594 39.703125 L 245.730469 74.589844 C 245.777344 75.558594 246.550781 76.328125 247.515625 76.367188 L 256.039062 76.367188 C 257.035156 76.328125 257.832031 75.511719 257.835938 74.503906 L 257.871094 48.871094 C 257.996094 43.632812 260.945312 41.101562 265.300781 41.101562 C 266.898438 41.101562 268.371094 41.410156 269.738281 41.894531 Z M 269.664062 41.863281 "/>
<g clip-path="url(#clip1)" clip-rule="nonzero">
<path style=" stroke:none;fill-rule:nonzero;fill:rgb(100%,100%,100%);fill-opacity:1;" d="M 335.480469 41.863281 C 336.503906 42.019531 337.410156 41.738281 337.5625 40.714844 L 338.804688 34.144531 L 338.796875 34.15625 C 339.050781 33.300781 338.664062 32.398438 337.917969 31.976562 C 336.183594 31.257812 334 30.800781 331.828125 30.800781 C 327.738281 30.800781 323.625 33.15625 321.671875 38.394531 L 320.304688 32.726562 C 320.050781 31.679688 319.402344 30.6875 318.394531 30.660156 L 313.550781 30.660156 C 312.550781 30.6875 311.746094 31.496094 311.730469 32.5 L 311.625 39.703125 L 311.546875 74.589844 C 311.59375 75.558594 312.367188 76.328125 313.335938 76.367188 L 321.855469 76.367188 C 322.851562 76.328125 323.648438 75.511719 323.652344 74.503906 L 323.6875 48.871094 C 323.8125 43.632812 326.761719 41.101562 331.117188 41.101562 C 332.714844 41.101562 334.1875 41.410156 335.554688 41.894531 Z M 335.480469 41.863281 "/>
</g>
<path style=" stroke:none;fill-rule:nonzero;fill:rgb(100%,100%,100%);fill-opacity:1;" d="M 292.847656 39.441406 C 295.023438 39.441406 296.984375 40.664062 297.398438 43.023438 C 298.332031 48.34375 291.035156 50.121094 285.847656 50.523438 C 284.820312 50.519531 284.15625 49.902344 284.179688 48.652344 C 284.953125 44.246094 287.328125 39.441406 292.847656 39.441406 Z M 307.785156 73.648438 C 308.660156 73.15625 308.898438 72.113281 308.445312 71.226562 L 305.648438 66.230469 C 305.121094 65.402344 304.082031 65.195312 303.210938 65.6875 L 303.222656 65.679688 C 300.925781 67.070312 297.890625 68.421875 294.113281 68.421875 C 287.582031 68.421875 285.058594 63.972656 284.230469 59.257812 C 294.53125 58.910156 310.660156 56.550781 308.019531 41.539062 C 306.839844 34.816406 301.253906 30.800781 293.070312 30.800781 C 276.785156 30.800781 269.535156 45.03125 272.160156 59.957031 C 273.957031 70.167969 280.414062 77.675781 292.609375 77.675781 C 300.03125 77.675781 305.207031 75.316406 307.820312 73.632812 Z M 307.785156 73.648438 "/>
<path style=" stroke:none;fill-rule:nonzero;fill:rgb(100%,100%,100%);fill-opacity:1;" d="M 185.578125 39.441406 C 187.753906 39.441406 189.710938 40.664062 190.125 43.023438 C 191.0625 48.34375 183.765625 50.121094 178.578125 50.523438 C 177.550781 50.519531 176.882812 49.902344 176.910156 48.652344 C 177.683594 44.246094 180.058594 39.441406 185.578125 39.441406 Z M 200.515625 73.648438 C 201.390625 73.15625 201.625 72.113281 201.175781 71.226562 L 198.375 66.230469 C 197.851562 65.402344 196.8125 65.195312 195.941406 65.6875 L 195.949219 65.679688 C 193.65625 67.070312 190.621094 68.421875 186.84375 68.421875 C 180.3125 68.421875 177.789062 63.972656 176.960938 59.257812 C 187.261719 58.910156 203.390625 56.550781 200.75 41.539062 C 199.570312 34.816406 193.988281 30.800781 185.800781 30.800781 C 169.515625 30.800781 162.265625 45.03125 164.890625 59.957031 C 166.6875 70.167969 173.144531 77.675781 185.335938 77.675781 C 192.761719 77.675781 197.933594 75.316406 200.550781 73.632812 Z M 200.515625 73.648438 "/>
<path style=" stroke:none;fill-rule:nonzero;fill:rgb(100%,100%,100%);fill-opacity:1;" d="M 18.652344 42.101562 L 16.824219 40.160156 C 16.171875 41.046875 15.386719 41.824219 14.507812 42.472656 L 16.273438 44.351562 C 16.585938 44.683594 17.011719 44.867188 17.464844 44.867188 C 17.527344 44.867188 17.589844 44.863281 17.648438 44.855469 C 18.003906 44.816406 18.328125 44.664062 18.585938 44.417969 C 18.90625 44.121094 19.085938 43.710938 19.101562 43.273438 C 19.113281 42.835938 18.953125 42.421875 18.652344 42.101562 Z M 18.652344 42.101562 "/>
<path style=" stroke:none;fill-rule:nonzero;fill:rgb(100%,100%,100%);fill-opacity:1;" d="M 40.878906 21.207031 C 39.910156 21.695312 38.871094 22.058594 37.789062 22.285156 L 39.636719 27.378906 C 39.871094 28.027344 40.492188 28.460938 41.175781 28.460938 C 41.367188 28.460938 41.554688 28.425781 41.734375 28.359375 C 42.582031 28.050781 43.019531 27.109375 42.714844 26.257812 Z M 40.878906 21.207031 "/>
<path style=" stroke:none;fill-rule:nonzero;fill:rgb(100%,100%,100%);fill-opacity:1;" d="M 67.144531 21.582031 C 66.78125 21.429688 66.429688 21.257812 66.085938 21.074219 L 63.929688 27.019531 C 63.621094 27.867188 64.058594 28.8125 64.90625 29.121094 C 65.089844 29.1875 65.277344 29.21875 65.464844 29.21875 L 65.535156 29.21875 C 66.199219 29.191406 66.777344 28.769531 67.003906 28.140625 L 69.152344 22.21875 C 68.472656 22.058594 67.800781 21.855469 67.144531 21.582031 Z M 67.144531 21.582031 "/>
<path style=" stroke:none;fill-rule:nonzero;fill:rgb(100%,100%,100%);fill-opacity:1;" d="M 87.398438 44.972656 L 85.339844 47.488281 C 84.769531 48.1875 84.871094 49.222656 85.566406 49.792969 C 85.785156 49.976562 86.039062 50.09375 86.3125 50.140625 C 86.410156 50.160156 86.507812 50.167969 86.601562 50.167969 C 87.097656 50.167969 87.558594 49.949219 87.867188 49.566406 L 89.855469 47.140625 C 88.902344 46.566406 88.078125 45.824219 87.398438 44.972656 Z M 87.398438 44.972656 "/>
<path style=" stroke:none;fill-rule:nonzero;fill:rgb(100%,100%,100%);fill-opacity:1;" d="M 52.578125 30.238281 C 41.574219 30.238281 31.964844 37.4375 28.808594 47.890625 C 28.105469 47.808594 27.398438 47.765625 26.699219 47.765625 C 26.21875 47.765625 25.730469 47.785156 25.253906 47.824219 C 22.210938 47.996094 19.160156 49.023438 16.425781 50.792969 L 16.390625 50.816406 L 16.351562 50.84375 C 14.917969 51.824219 13.765625 52.824219 12.839844 53.886719 C 11.878906 54.925781 11.011719 56.175781 10.191406 57.703125 C 7.234375 63.398438 7.472656 70.480469 10.769531 75.800781 C 12.335938 78.429688 14.625 80.675781 17.386719 82.296875 C 20.054688 83.84375 23.164062 84.6875 26.390625 84.753906 L 26.503906 84.753906 L 79.03125 85 C 83.789062 85 88.421875 82.675781 91.195312 78.929688 C 94.046875 75.253906 95 70.105469 93.6875 65.476562 C 92.371094 60.84375 88.773438 56.949219 84.296875 55.316406 C 82.585938 54.664062 80.722656 54.324219 78.804688 54.324219 C 78.339844 54.324219 77.875 54.34375 77.414062 54.386719 C 77.011719 41 66.027344 30.238281 52.578125 30.238281 Z M 52.578125 33.691406 C 64.378906 33.691406 73.980469 43.3125 73.980469 55.140625 L 73.980469 57.398438 C 73.183594 57.777344 72.433594 58.238281 71.75 58.78125 C 71.597656 58.90625 71.546875 59.128906 71.644531 59.3125 C 71.71875 59.449219 71.863281 59.53125 72.011719 59.53125 C 72.082031 59.53125 72.148438 59.515625 72.210938 59.480469 C 73.917969 58.566406 75.75 57.996094 77.621094 57.832031 C 78.015625 57.792969 78.410156 57.777344 78.804688 57.777344 C 80.28125 57.777344 81.75 58.035156 83.121094 58.558594 C 86.625 59.839844 89.371094 62.882812 90.375 66.417969 C 91.378906 69.957031 90.714844 73.953125 88.457031 76.839844 C 86.292969 79.785156 82.707031 81.546875 79.085938 81.546875 L 79.050781 81.546875 L 26.464844 81.300781 L 26.457031 81.300781 C 23.894531 81.25 21.339844 80.597656 19.125 79.316406 C 16.921875 78.023438 15.015625 76.207031 13.710938 74.003906 C 10.996094 69.648438 10.867188 63.878906 13.222656 59.339844 C 13.828125 58.21875 14.527344 57.132812 15.402344 56.199219 C 16.238281 55.226562 17.242188 54.414062 18.296875 53.691406 C 20.441406 52.304688 22.925781 51.40625 25.492188 51.269531 C 25.894531 51.234375 26.296875 51.21875 26.699219 51.21875 C 28.863281 51.21875 31.027344 51.710938 33.011719 52.601562 C 34.191406 53.125 35.3125 53.808594 36.332031 54.621094 C 37.367188 55.417969 38.289062 56.363281 39.121094 57.394531 L 39.125 57.398438 C 39.261719 57.566406 39.460938 57.660156 39.667969 57.660156 C 39.792969 57.660156 39.917969 57.625 40.03125 57.554688 C 40.355469 57.351562 40.460938 56.925781 40.257812 56.597656 C 39.503906 55.367188 38.554688 54.253906 37.488281 53.261719 C 36.40625 52.285156 35.195312 51.441406 33.894531 50.765625 C 33.230469 50.425781 32.539062 50.128906 31.832031 49.882812 C 34.226562 40.332031 42.703125 33.691406 52.578125 33.691406 Z M 52.578125 33.691406 "/>
<path style=" stroke:none;fill-rule:nonzero;fill:rgb(61.568627%,67.45098%,89.019608%);fill-opacity:1;" d="M 35.203125 19.789062 C 33.914062 19.789062 32.640625 19.53125 31.429688 19.027344 C 29 18.015625 27.105469 16.109375 26.101562 13.664062 C 25.09375 11.21875 25.09375 8.53125 26.105469 6.097656 C 27.640625 2.394531 31.21875 0 35.222656 0 C 36.515625 0 37.785156 0.257812 39.003906 0.765625 C 44.023438 2.855469 46.410156 8.65625 44.324219 13.691406 C 42.785156 17.394531 39.207031 19.789062 35.203125 19.789062 Z M 35.203125 19.789062 "/>
<path style=" stroke:none;fill-rule:nonzero;fill:rgb(61.568627%,67.45098%,89.019608%);fill-opacity:1;" d="M 71.984375 19.789062 C 70.691406 19.789062 69.417969 19.53125 68.207031 19.027344 C 63.183594 16.933594 60.792969 11.132812 62.882812 6.097656 C 64.417969 2.394531 67.996094 0 72 0 C 73.292969 0 74.5625 0.257812 75.78125 0.765625 C 80.804688 2.855469 83.1875 8.65625 81.101562 13.691406 C 79.5625 17.394531 75.984375 19.789062 71.984375 19.789062 Z M 71.984375 19.789062 "/>
<path style=" stroke:none;fill-rule:nonzero;fill:rgb(61.568627%,67.45098%,89.019608%);fill-opacity:1;" d="M 94.609375 45.695312 C 94.078125 45.695312 93.546875 45.628906 93.019531 45.496094 C 89.566406 44.625 87.460938 41.097656 88.332031 37.632812 C 89.058594 34.75 91.628906 32.734375 94.585938 32.734375 C 95.117188 32.734375 95.652344 32.800781 96.179688 32.933594 C 97.851562 33.355469 99.261719 34.40625 100.144531 35.890625 C 101.03125 37.375 101.289062 39.117188 100.867188 40.796875 C 100.140625 43.683594 97.570312 45.695312 94.609375 45.695312 Z M 94.609375 45.695312 "/>
<path style=" stroke:none;fill-rule:nonzero;fill:rgb(61.568627%,67.45098%,89.019608%);fill-opacity:1;" d="M 8.113281 41.808594 C 7.445312 41.808594 6.777344 41.722656 6.121094 41.558594 C 4.023438 41.03125 2.257812 39.714844 1.148438 37.851562 C 0.0390625 35.992188 -0.28125 33.808594 0.25 31.707031 C 1.15625 28.09375 4.378906 25.570312 8.085938 25.570312 C 8.75 25.570312 9.417969 25.65625 10.078125 25.820312 C 14.402344 26.914062 17.039062 31.332031 15.949219 35.671875 C 15.039062 39.285156 11.820312 41.808594 8.113281 41.808594 Z M 8.113281 41.808594 "/>
</g>
</svg>
