<svg width="341" height="100" viewBox="0 0 341 122" fill="none" xmlns="http://www.w3.org/2000/svg">
<path d="M60.7013 121.37C94.0417 121.37 121.069 94.3414 121.069 61C121.069 27.6586 94.0417 0.630096 60.7013 0.630096C27.361 0.630096 0.333252 27.6586 0.333252 61C0.333252 94.3414 27.361 121.37 60.7013 121.37Z" fill="url(#paint0_linear_2_2768)"/>
<path d="M72.5134 32.7693C71.7168 27.865 75.0402 23.2595 79.9443 22.4628C84.8484 21.6662 89.4538 24.9897 90.2504 29.8939C91.047 34.7982 87.7237 39.4038 82.8196 40.2004C77.9154 40.997 73.2976 37.6736 72.5134 32.7693Z" fill="#C4C4C4"/>
<path d="M31.2515 32.7693C30.4549 27.865 33.7782 23.2595 38.6823 22.4628C43.5865 21.6662 48.1919 24.9897 48.9885 29.8939C49.7851 34.7982 46.4617 39.4038 41.5576 40.2004C36.6535 40.997 32.0356 37.6736 31.2515 32.7693Z" fill="#C4C4C4"/>
<path d="M74.181 119.839H74.1935C82.0724 118.034 89.3539 114.686 95.7268 110.142L93.3992 108.412L61.3108 95.8029L72.0899 115.482C72.8616 116.901 73.5462 118.345 74.1686 119.826L74.181 119.839Z" fill="#C4C4C4"/>
<path d="M79.0232 118.519C103.407 110.765 121.069 87.9362 121.069 60.9751C121.069 55.3115 120.285 49.8471 118.841 44.6441H89.5783C86.4167 36.8396 78.7618 31.3254 69.8124 31.3254H52.8222C41.0474 31.3254 31.5005 40.8725 31.5005 52.6478V60.2531C31.5005 66.5391 34.2139 72.1778 38.5455 76.0862L66.153 107.752C69.8747 112.022 74.2311 115.632 79.0232 118.519V118.519Z" fill="#F5F5F5"/>
<path d="M83.5788 50.5815C84.226 51.8014 85.4956 52.5607 86.8648 52.5607H120.484C120.111 49.8596 119.551 47.2207 118.829 44.6566H89.5658C86.4042 36.852 78.7493 31.3378 69.7999 31.3378H52.8097C43.5865 31.3378 35.7324 37.1881 32.7576 45.3785C36.6037 41.582 41.8937 39.2419 47.7189 39.2419H64.7091C72.8743 39.2419 79.9691 43.835 83.5539 50.5815H83.5788Z" fill="white"/>
<path d="M79.0235 118.519C84.8113 116.677 90.2133 113.989 95.105 110.59C75.6254 99.6243 52.3619 73.7586 31.5132 52.6478V60.2532C31.5132 66.5391 34.2266 72.1778 38.5582 76.0863L66.1657 107.752C69.8874 112.022 74.2438 115.632 79.0359 118.519H79.0235Z" fill="#E9E9E9"/>
<path d="M67.5597 61.1369C67.5597 63.9998 65.2321 66.3275 62.3693 66.3275H59.133C56.2702 66.3275 53.9426 63.9998 53.9426 61.1369C53.9426 58.274 56.2702 55.9464 59.133 55.9464H62.3693C65.2321 55.9464 67.5597 58.274 67.5597 61.1369Z" fill="#0C0C0C"/>
<path d="M70.0613 49.7973C70.0613 48.4157 71.1815 47.3079 72.5507 47.3079C73.9199 47.3079 75.0401 48.4281 75.0401 49.7973C75.0401 51.1666 73.9199 52.2868 72.5507 52.2868C71.1815 52.2868 70.0613 51.1666 70.0613 49.7973Z" fill="#0C0C0C"/>
<path d="M47.4824 49.7973C47.4824 48.4157 48.6027 47.3079 49.9718 47.3079C51.341 47.3079 52.4612 48.4281 52.4612 49.7973C52.4612 51.1666 51.341 52.2868 49.9718 52.2868C48.6027 52.2868 47.4824 51.1666 47.4824 49.7973Z" fill="#0C0C0C"/>
<path d="M159.302 83.8452C160.823 83.8452 162.154 83.5541 163.324 83.001C164.479 82.4333 165.371 81.6327 166 80.5847C166.658 79.5367 166.995 78.2995 167.024 76.873H179.703C179.674 80.3664 178.767 83.4522 176.983 86.1305C175.199 88.8087 172.786 90.9193 169.759 92.4331C166.717 93.9469 163.324 94.7183 159.536 94.7183C154.535 94.7183 150.367 93.6266 147.047 91.4578C143.742 89.2745 141.256 86.3488 139.589 82.6517C137.951 78.9545 137.132 74.8207 137.132 70.2647V69.0566C137.132 64.4715 137.951 60.3232 139.589 56.626C141.256 52.9289 143.742 49.9886 147.047 47.8198C150.382 45.6364 154.535 44.5593 159.492 44.5593C163.485 44.5593 166.98 45.3308 169.978 46.8882C173.02 48.4166 175.374 50.6 177.071 53.4674C178.796 56.3058 179.674 59.6973 179.703 63.671H167.024C166.995 62.1572 166.688 60.7744 166.088 59.5517C165.518 58.2999 164.655 57.2956 163.499 56.5532C162.344 55.8109 160.911 55.4324 159.215 55.4324C156.831 55.4324 155.018 56.0729 153.774 57.3538C152.561 58.6347 151.727 60.3232 151.274 62.4046C150.82 64.457 150.601 66.684 150.601 69.0712V70.2793C150.601 72.6955 150.806 74.9517 151.23 77.0331C151.683 79.0855 152.517 80.7448 153.774 81.9966C155.047 83.2484 156.904 83.8743 159.302 83.8743V83.8452Z" fill="#0C0C0C"/>
<path d="M215.21 45.4181V79.3912C214.596 80.5265 213.762 81.4726 212.666 82.215C211.203 83.2339 209.185 83.7433 206.597 83.7433C205.324 83.7433 204.169 83.525 203.16 83.0738C202.18 82.5934 201.405 81.8511 200.835 80.8322C200.294 79.7842 200.03 78.445 200.03 76.8002V45.4036H186.547V76.7129C186.547 83.1174 188.024 87.7316 190.964 90.5263C193.932 93.2919 197.808 94.6892 202.56 94.6892C206.611 94.6892 209.96 93.6994 212.607 91.7344C213.762 90.8756 214.772 89.8713 215.678 88.7505L216.044 93.8013H228.679V45.4036H215.196L215.21 45.4181Z" fill="#0C0C0C"/>
<path d="M264.058 44.6612C263.312 44.5739 262.595 44.5302 261.923 44.5302C258.954 44.5302 256.424 45.4618 254.333 47.354C253.133 48.4166 252.139 49.7266 251.276 51.255L250.852 45.4181H238.173V93.8159H251.656V62.5211C251.715 62.3901 251.773 62.2445 251.832 62.1135C252.578 60.6871 253.704 59.6099 255.225 58.8967C256.746 58.1544 258.676 57.7759 261.03 57.7759C261.747 57.7759 262.551 57.8196 263.443 57.9069C264.336 57.9651 265.111 58.0379 265.769 58.1253L265.944 45.1124C265.462 44.9087 264.847 44.7486 264.072 44.6612H264.058Z" fill="#0C0C0C"/>
<path d="M286.034 93.8159H272.507V45.4181H286.034V93.8159Z" fill="#0C0C0C"/>
<path d="M294.385 69.173C294.385 64.457 295.277 60.2504 297.061 56.5532C298.845 52.827 301.448 49.8867 304.87 47.747C308.292 45.5928 312.445 44.5302 317.315 44.5302C322.185 44.5302 326.426 45.6073 329.848 47.747C333.299 49.8867 335.902 52.827 337.657 56.5532C339.441 60.2504 340.333 64.457 340.333 69.173V70.1046C340.333 74.7915 339.441 78.9836 337.657 82.7244C335.902 86.4507 333.314 89.3909 329.892 91.5306C326.47 93.6412 322.302 94.7038 317.403 94.7038C312.504 94.7038 308.307 93.6412 304.87 91.5306C301.448 89.3764 298.845 86.4507 297.061 82.7244C295.277 78.9981 294.385 74.7915 294.385 70.1046V69.173V69.173ZM307.912 70.1046C307.912 72.6373 308.204 74.9517 308.804 77.0331C309.433 79.1146 310.427 80.7739 311.787 81.9966C313.191 83.2193 315.063 83.8307 317.403 83.8307C319.743 83.8307 321.571 83.2193 322.931 81.9966C324.335 80.7739 325.329 79.1146 325.914 77.0331C326.543 74.9517 326.85 72.6373 326.85 70.1046V69.173C326.85 66.6986 326.543 64.4133 325.914 62.3319C325.314 60.2213 324.32 58.5328 322.931 57.281C321.556 56.0292 319.684 55.4033 317.315 55.4033C314.946 55.4033 313.133 56.0292 311.729 57.281C310.354 58.5328 309.374 60.2213 308.789 62.3319C308.19 64.4133 307.897 66.6986 307.897 69.173V70.1046H307.912Z" fill="#0C0C0C"/>
<path d="M277.567 27.2817H281.472C284.923 27.2817 287.716 30.2656 287.716 33.9628C287.716 37.6599 284.923 40.6438 281.472 40.6438H277.567C274.116 40.6438 271.323 37.6599 271.323 33.9628C271.323 30.2656 274.116 27.2817 277.567 27.2817Z" fill="#0C0C0C"/>
<defs>
<linearGradient id="paint0_linear_2_2768" x1="60.7013" y1="0.630096" x2="60.7013" y2="121.37" gradientUnits="userSpaceOnUse">
<stop stop-color="#A46EF7"/>
<stop offset="1" stop-color="#6E20E6"/>
</linearGradient>
</defs>
</svg>
