<svg width="341" height="100" viewBox="0 0 341 122" fill="none" xmlns="http://www.w3.org/2000/svg">
<path d="M61.0351 121.37C94.3754 121.37 121.403 94.3414 121.403 61C121.403 27.6586 94.3754 0.630096 61.0351 0.630096C27.6947 0.630096 0.666992 27.6586 0.666992 61C0.666992 94.3414 27.6947 121.37 61.0351 121.37Z" fill="url(#paint0_linear_2_2737)"/>
<path d="M72.8469 32.7693C72.0503 27.865 75.3737 23.2595 80.2778 22.4628C85.1819 21.6662 89.7873 24.9897 90.5839 29.8939C91.3805 34.7982 88.0572 39.4038 83.1531 40.2004C78.2489 40.997 73.6311 37.6736 72.8469 32.7693Z" fill="#C4C4C4"/>
<path d="M31.5852 32.7693C30.7886 27.865 34.112 23.2595 39.0161 22.4628C43.9202 21.6662 48.5256 24.9897 49.3222 29.8939C50.1188 34.7982 46.7955 39.4038 41.8913 40.2004C36.9872 40.997 32.3694 37.6736 31.5852 32.7693Z" fill="#C4C4C4"/>
<path d="M74.5147 119.839H74.5272C82.4062 118.034 89.6877 114.686 96.0605 110.142L93.7329 108.412L61.6445 95.8029L72.4236 115.482C73.1954 116.901 73.88 118.345 74.5023 119.826L74.5147 119.839Z" fill="#C4C4C4"/>
<path d="M79.3567 118.519C103.74 110.765 121.403 87.9362 121.403 60.9751C121.403 55.3115 120.619 49.8471 119.175 44.6441H89.9118C86.7502 36.8396 79.0953 31.3254 70.1459 31.3254H53.1557C41.3809 31.3254 31.834 40.8725 31.834 52.6478V60.2531C31.834 66.5391 34.5474 72.1778 38.879 76.0862L66.4865 107.752C70.2082 112.022 74.5646 115.632 79.3567 118.519V118.519Z" fill="#F5F5F5"/>
<path d="M83.9125 50.5815C84.5597 51.8014 85.8293 52.5607 87.1985 52.5607H120.818C120.445 49.8596 119.884 47.2207 119.162 44.6566H89.8995C86.738 36.852 79.0831 31.3378 70.1336 31.3378H53.1435C43.9202 31.3378 36.0661 37.1881 33.0913 45.3785C36.9374 41.582 42.2274 39.2419 48.0526 39.2419H65.0428C73.2081 39.2419 80.3029 43.835 83.8876 50.5815H83.9125Z" fill="white"/>
<path d="M79.357 118.519C85.1448 116.677 90.5468 113.989 95.4385 110.59C75.9589 99.6243 52.6954 73.7586 31.8467 52.6478V60.2532C31.8467 66.5391 34.5601 72.1778 38.8917 76.0863L66.4992 107.752C70.2208 112.022 74.5773 115.632 79.3694 118.519H79.357Z" fill="#E9E9E9"/>
<path d="M67.8934 61.1369C67.8934 63.9998 65.5658 66.3275 62.703 66.3275H59.4668C56.604 66.3275 54.2764 63.9998 54.2764 61.1369C54.2764 58.274 56.604 55.9464 59.4668 55.9464H62.703C65.5658 55.9464 67.8934 58.274 67.8934 61.1369Z" fill="#0C0C0C"/>
<path d="M70.395 49.7973C70.395 48.4157 71.5153 47.3079 72.8844 47.3079C74.2536 47.3079 75.3738 48.4281 75.3738 49.7973C75.3738 51.1666 74.2536 52.2868 72.8844 52.2868C71.5153 52.2868 70.395 51.1666 70.395 49.7973Z" fill="#0C0C0C"/>
<path d="M47.8159 49.7973C47.8159 48.4157 48.9362 47.3079 50.3053 47.3079C51.6745 47.3079 52.7947 48.4281 52.7947 49.7973C52.7947 51.1666 51.6745 52.2868 50.3053 52.2868C48.9362 52.2868 47.8159 51.1666 47.8159 49.7973Z" fill="#0C0C0C"/>
<path d="M159.636 83.8452C161.157 83.8452 162.488 83.5541 163.657 83.001C164.813 82.4333 165.705 81.6327 166.334 80.5847C166.992 79.5367 167.328 78.2995 167.357 76.873H180.036C180.007 80.3664 179.1 83.4522 177.316 86.1305C175.532 88.8087 173.119 90.9193 170.092 92.4331C167.05 93.9469 163.657 94.7183 159.87 94.7183C154.868 94.7183 150.701 93.6266 147.381 91.4578C144.076 89.2745 141.59 86.3488 139.923 82.6517C138.285 78.9545 137.466 74.8207 137.466 70.2647V69.0566C137.466 64.4715 138.285 60.3232 139.923 56.626C141.59 52.9289 144.076 49.9886 147.381 47.8198C150.715 45.6364 154.868 44.5593 159.826 44.5593C163.818 44.5593 167.313 45.3308 170.311 46.8882C173.353 48.4166 175.708 50.6 177.404 53.4674C179.13 56.3058 180.007 59.6973 180.036 63.671H167.357C167.328 62.1572 167.021 60.7744 166.421 59.5517C165.851 58.2999 164.988 57.2956 163.833 56.5532C162.678 55.8109 161.245 55.4324 159.548 55.4324C157.164 55.4324 155.351 56.0729 154.108 57.3538C152.894 58.6347 152.061 60.3232 151.607 62.4046C151.154 64.457 150.935 66.684 150.935 69.0712V70.2793C150.935 72.6955 151.139 74.9517 151.563 77.0331C152.017 79.0855 152.85 80.7448 154.108 81.9966C155.38 83.2484 157.238 83.8743 159.636 83.8743V83.8452Z" fill="#F5F5F5"/>
<path d="M215.543 45.4181V79.3912C214.929 80.5265 214.096 81.4726 212.999 82.215C211.536 83.2339 209.518 83.7433 206.93 83.7433C205.658 83.7433 204.502 83.525 203.493 83.0738C202.513 82.5934 201.738 81.8511 201.168 80.8322C200.627 79.7842 200.364 78.445 200.364 76.8002V45.4036H186.88V76.7129C186.88 83.1174 188.357 87.7316 191.297 90.5263C194.266 93.2919 198.141 94.6892 202.894 94.6892C206.945 94.6892 210.293 93.6994 212.94 91.7344C214.096 90.8756 215.105 89.8713 216.011 88.7505L216.377 93.8013H229.012V45.4036H215.529L215.543 45.4181Z" fill="#F5F5F5"/>
<path d="M264.391 44.6612C263.645 44.5739 262.928 44.5302 262.256 44.5302C259.287 44.5302 256.757 45.4618 254.666 47.354C253.467 48.4166 252.472 49.7266 251.609 51.255L251.185 45.4181H238.506V93.8159H251.99V62.5211C252.048 62.3901 252.107 62.2445 252.165 62.1135C252.911 60.6871 254.037 59.6099 255.558 58.8967C257.079 58.1544 259.009 57.7759 261.364 57.7759C262.08 57.7759 262.885 57.8196 263.777 57.9069C264.669 57.9651 265.444 58.0379 266.102 58.1253L266.277 45.1124C265.795 44.9087 265.181 44.7486 264.406 44.6612H264.391Z" fill="#F5F5F5"/>
<path d="M286.368 93.8159H272.84V45.4181H286.368V93.8159Z" fill="#F5F5F5"/>
<path d="M294.718 69.173C294.718 64.457 295.61 60.2504 297.394 56.5532C299.178 52.827 301.781 49.8867 305.203 47.747C308.625 45.5928 312.778 44.5302 317.648 44.5302C322.518 44.5302 326.759 45.6073 330.181 47.747C333.632 49.8867 336.235 52.827 337.99 56.5532C339.774 60.2504 340.667 64.457 340.667 69.173V70.1046C340.667 74.7915 339.774 78.9836 337.99 82.7244C336.235 86.4507 333.647 89.3909 330.225 91.5306C326.803 93.6412 322.635 94.7038 317.736 94.7038C312.837 94.7038 308.64 93.6412 305.203 91.5306C301.781 89.3764 299.178 86.4507 297.394 82.7244C295.61 78.9981 294.718 74.7915 294.718 70.1046V69.173V69.173ZM308.245 70.1046C308.245 72.6373 308.537 74.9517 309.137 77.0331C309.766 79.1146 310.76 80.7739 312.12 81.9966C313.524 83.2193 315.396 83.8307 317.736 83.8307C320.076 83.8307 321.904 83.2193 323.264 81.9966C324.668 80.7739 325.662 79.1146 326.247 77.0331C326.876 74.9517 327.183 72.6373 327.183 70.1046V69.173C327.183 66.6986 326.876 64.4133 326.247 62.3319C325.648 60.2213 324.653 58.5328 323.264 57.281C321.889 56.0292 320.017 55.4033 317.648 55.4033C315.279 55.4033 313.466 56.0292 312.062 57.281C310.687 58.5328 309.707 60.2213 309.122 62.3319C308.523 64.4133 308.23 66.6986 308.23 69.173V70.1046H308.245Z" fill="#F5F5F5"/>
<path d="M277.901 27.2817H281.805C285.257 27.2817 288.05 30.2656 288.05 33.9628C288.05 37.6599 285.257 40.6438 281.805 40.6438H277.901C274.449 40.6438 271.656 37.6599 271.656 33.9628C271.656 30.2656 274.449 27.2817 277.901 27.2817Z" fill="#F5F5F5"/>
<defs>
<linearGradient id="paint0_linear_2_2737" x1="61.0351" y1="0.630096" x2="61.0351" y2="121.37" gradientUnits="userSpaceOnUse">
<stop stop-color="#A46EF7"/>
<stop offset="1" stop-color="#6E20E6"/>
</linearGradient>
</defs>
</svg>
