<svg width="830" height="47" viewBox="0 0 830 47" fill="none" xmlns="http://www.w3.org/2000/svg">
<mask id="path-1-inside-1_38_47" fill="white">
<path d="M0 0H830V46.8507H0V0Z"/>
</mask>
<path d="M830 45.8507H0V47.8507H830V45.8507Z" fill="#D0D7DE" mask="url(#path-1-inside-1_38_47)"/>
<path d="M11.0427 10.9935C9.87934 10.9935 8.82385 11.1864 7.87626 11.5676C6.92398 11.9488 6.11243 12.4806 5.4463 13.163C4.77548 13.8454 4.25947 14.6454 3.89826 15.5584C3.53705 16.4714 3.35879 17.4691 3.35879 18.5563C3.35879 19.6434 3.5605 20.6458 3.95924 21.5682C4.35798 22.4906 4.90683 23.2954 5.59642 23.9777C6.286 24.6601 7.09755 25.1919 8.02638 25.5731C8.9552 25.9543 9.96378 26.1473 11.0427 26.1473C11.9434 26.1473 12.7315 26.0579 13.4164 25.8743C14.0966 25.6955 14.6924 25.4696 15.2037 25.1966C15.715 24.9237 16.1372 24.6272 16.4796 24.3072C16.8221 23.9872 17.0989 23.6954 17.3193 23.4318V27.225C16.5594 27.8697 15.6071 28.3404 14.4672 28.6415C13.3273 28.9427 12.117 29.0933 10.8363 29.0933C9.21321 29.0933 7.74022 28.8157 6.40797 28.2651C5.07571 27.7144 3.93579 26.9615 2.9835 26.0061C2.03122 25.0508 1.29473 23.9354 0.778713 22.6459C0.258007 21.3611 0 19.9963 0 18.5516C0 17.1068 0.258007 15.742 0.778713 14.4572C1.29942 13.1724 2.03591 12.0524 2.9835 11.097C3.93579 10.1417 5.07571 9.38867 6.40797 8.83805C7.74022 8.28743 9.21321 8.00977 10.8363 8.00977C12.4594 8.00977 13.8996 8.21213 14.9785 8.61215C16.0574 9.01218 16.8408 9.43573 17.3193 9.87811V13.7042C17.2396 13.5819 17.0426 13.3748 16.733 13.0736C16.4233 12.7724 16.0012 12.4665 15.4711 12.1559C14.941 11.8453 14.3077 11.5723 13.5806 11.3417C12.8488 11.1111 12.0044 10.9935 11.0427 10.9935Z" fill="#191744"/>
<path d="M38.5745 8.28125L30.1682 20.7196V28.8236H26.9548V20.7526L18.5485 8.28125H22.3623L28.5779 17.4677L34.7607 8.28125H38.5745Z" fill="#191744"/>
<path d="M56.7664 17.1952V26.1416C56.0064 26.984 54.9838 27.6899 53.7031 28.25C52.4225 28.81 50.8791 29.0924 49.0778 29.0924C47.2764 29.0924 45.8081 28.8147 44.4383 28.2641C43.0685 27.7135 41.9051 26.9605 40.9576 26.0051C40.0053 25.0498 39.2782 23.9344 38.7668 22.6449C38.2555 21.3602 38.0022 19.9954 38.0022 18.5506C38.0022 17.1058 38.2602 15.741 38.7809 14.4562C39.3016 13.1714 40.0381 12.0514 40.9857 11.096C41.938 10.1407 43.0873 9.38769 44.4383 8.83707C45.7893 8.28645 47.2858 8.00879 48.9276 8.00879C50.4475 8.00879 51.7657 8.20645 52.8775 8.59706C53.9893 8.98767 54.8055 9.41593 55.3262 9.87713V13.7032C55.1245 13.4444 54.8384 13.1526 54.4725 12.8279C54.1019 12.5079 53.6515 12.2114 53.1214 11.9384C52.5913 11.6655 51.9909 11.4396 51.3201 11.2607C50.6493 11.0819 49.9034 10.9878 49.0824 10.9878C47.9003 10.9878 46.8354 11.1807 45.8832 11.5619C44.9309 11.9431 44.1193 12.4749 43.4532 13.1573C42.7824 13.8397 42.2664 14.6398 41.9051 15.5528C41.5439 16.4658 41.3657 17.4635 41.3657 18.5506C41.3657 19.6377 41.5439 20.6401 41.9051 21.5625C42.2664 22.4849 42.7824 23.2897 43.4532 23.9721C44.124 24.6545 44.9356 25.1863 45.8832 25.5675C46.8354 25.9487 47.8909 26.1416 49.0496 26.1416C49.6313 26.1416 50.1473 26.1087 50.5977 26.0381C51.048 25.9675 51.4467 25.8734 51.7986 25.751C52.1504 25.6286 52.4647 25.5016 52.7462 25.3604C53.0276 25.2192 53.295 25.078 53.5577 24.9368V20.1789H47.1638V17.1952H56.7711H56.7664Z" fill="#191744"/>
<path d="M60.0923 28.8189V8.28125H63.3338V28.8236H60.0923V28.8189Z" fill="#191744"/>
<path d="M91.8772 11.2602V18.2489C92.3369 17.9053 92.8295 17.6041 93.3502 17.3453C93.8709 17.0865 94.4573 16.8606 95.1046 16.6676C95.7567 16.4747 96.4744 16.3335 97.2672 16.2299C98.06 16.1311 98.9419 16.0793 99.9223 16.0793H101.395V19.0019H99.9223C98.9419 19.0019 97.999 19.0866 97.0983 19.256C96.1976 19.4254 95.3908 19.6701 94.6824 19.9808C93.9694 20.2914 93.3689 20.6773 92.8811 21.1385C92.3885 21.5997 92.0554 22.1315 91.8772 22.7339V25.8682H102.864V28.8189H88.631V8.28125H102.864V11.265H91.8772V11.2602Z" fill="#191744"/>
<path d="M112.794 17.0735C114.197 17.5347 115.356 17.9865 116.275 18.4288C117.195 18.8712 117.931 19.3324 118.48 19.8125C119.029 20.2925 119.418 20.8102 119.653 21.3655C119.883 21.9161 120 22.5373 120 23.2197C120 24.3021 119.761 25.2198 119.277 25.9587C118.799 26.7023 118.175 27.3094 117.415 27.78C116.655 28.2506 115.801 28.5894 114.863 28.7871C113.92 28.9895 112.991 29.0883 112.072 29.0883C110.749 29.0883 109.501 28.9142 108.319 28.5612C107.137 28.2082 106.208 27.8035 105.528 27.3423V23.968C106.086 24.368 106.72 24.721 107.419 25.0222C108 25.3045 108.69 25.554 109.492 25.7752C110.294 25.9963 111.153 26.1046 112.072 26.1046C112.25 26.1046 112.588 26.0905 113.076 26.0575C113.564 26.0293 114.075 25.9257 114.605 25.7563C115.135 25.5869 115.6 25.3281 116.003 24.9892C116.402 24.6457 116.604 24.1751 116.604 23.5727C116.604 23.0926 116.51 22.6785 116.317 22.3397C116.125 21.9961 115.844 21.6949 115.464 21.4361C115.084 21.1772 114.596 20.9278 114.009 20.6972C113.418 20.4666 112.715 20.2219 111.894 19.9583C110.571 19.5348 109.478 19.0971 108.605 18.6312C107.733 18.1653 107.043 17.69 106.532 17.1864C106.021 16.6829 105.659 16.1464 105.453 15.5769C105.242 15.0028 105.139 14.3863 105.139 13.7227C105.139 13.5439 105.162 13.2756 105.214 12.9226C105.265 12.5697 105.378 12.1838 105.561 11.7649C105.739 11.3414 105.997 10.9131 106.326 10.4707C106.654 10.0284 107.1 9.62362 107.662 9.25184C108.221 8.88005 108.92 8.57886 109.75 8.34826C110.58 8.11765 111.575 8 112.738 8C113.32 8 113.916 8.04236 114.525 8.12236C115.135 8.20236 115.726 8.3059 116.299 8.43767C116.871 8.56944 117.396 8.72475 117.875 8.90358C118.353 9.08242 118.747 9.27537 119.048 9.47773V12.7626C119.005 12.7014 118.818 12.5697 118.475 12.372C118.133 12.1697 117.683 11.972 117.124 11.7696C116.566 11.5673 115.909 11.3884 115.159 11.2284C114.408 11.0684 113.611 10.9884 112.771 10.9884C111.87 10.9884 111.143 11.0778 110.594 11.2614C110.046 11.4402 109.614 11.6755 109.304 11.9532C108.995 12.2355 108.788 12.532 108.69 12.8426C108.591 13.1532 108.54 13.4497 108.54 13.7321C108.54 13.9533 108.573 14.1933 108.643 14.4568C108.713 14.7204 108.892 14.9886 109.182 15.271C109.473 15.5534 109.905 15.8452 110.472 16.1464C111.045 16.4476 111.819 16.7582 112.799 17.0782L112.794 17.0735Z" fill="#191744"/>
<path d="M83.8325 8.00879C83.1992 8.03232 82.5706 8.10762 81.9467 8.23939C81.3181 8.37116 80.6614 8.57823 79.9671 8.8606C79.2775 9.13827 78.5551 9.51005 77.8045 9.96655C77.2697 10.2913 76.7115 10.6725 76.1298 11.1054C75.5434 10.6725 74.9852 10.2913 74.4504 9.96655C73.6999 9.51005 72.9774 9.13827 72.2879 8.8606C71.5983 8.57823 70.9368 8.37116 70.3129 8.23939C69.6843 8.10762 69.0557 8.03232 68.4271 8.00879L66.0535 11.049L66.213 11.4396L74.4739 28.81H77.7201L86.042 11.4349L86.2015 11.049L83.8325 8.00879ZM76.0923 24.7768L69.5905 11.4113C69.5905 11.4113 69.6421 11.4255 69.6656 11.4302C70.4865 11.6466 71.3497 11.9949 72.2409 12.4655C73.1369 12.9361 74.0048 13.5056 74.8492 14.1786L76.1204 15.1857H76.1251L77.3964 14.1786C78.2408 13.5056 79.1133 12.9361 80.0046 12.4655C80.9006 11.9949 81.7591 11.6466 82.5847 11.4302C82.6082 11.4302 82.6363 11.416 82.6598 11.4113L76.0923 24.7768Z" fill="url(#paint0_linear_38_47)"/>
<path d="M60.5121 34.4902H61.3471C61.4973 34.4902 61.6333 34.5044 61.7553 34.5373C61.8772 34.5702 61.9804 34.6173 62.0696 34.6832C62.1587 34.7491 62.2244 34.8291 62.2713 34.9279C62.3182 35.0267 62.3416 35.1444 62.3416 35.2762C62.3416 35.4079 62.3182 35.5256 62.2713 35.6244C62.2244 35.7232 62.154 35.808 62.0649 35.8738C61.9757 35.9397 61.8725 35.9915 61.7459 36.0244C61.6239 36.0574 61.4832 36.0762 61.3331 36.0762H60.8077V37.4551H60.5074V34.4902H60.5121ZM60.8124 35.8221H61.3237C61.5582 35.8221 61.7412 35.775 61.8632 35.6856C61.9851 35.5962 62.0461 35.4597 62.0461 35.2856C62.0461 35.1114 61.9804 34.9656 61.8538 34.8808C61.7271 34.7961 61.5489 34.7538 61.3237 34.7538H60.8124V35.8268V35.8221Z" fill="#191744"/>
<path d="M66.1037 35.9736C66.1037 36.1995 66.0662 36.4065 65.9864 36.5995C65.9067 36.7877 65.7988 36.9525 65.6627 37.0936C65.5267 37.2348 65.3625 37.3384 65.1749 37.4184C64.9872 37.4937 64.7808 37.536 64.565 37.536C64.3492 37.536 64.1428 37.4984 63.9552 37.4184C63.7676 37.3384 63.6034 37.2301 63.4673 37.0936C63.3313 36.9572 63.2234 36.7924 63.1436 36.5995C63.0639 36.4065 63.0264 36.1995 63.0264 35.9736C63.0264 35.7477 63.0639 35.5406 63.1436 35.3477C63.2234 35.1547 63.3313 34.9947 63.4673 34.8535C63.6034 34.7123 63.7676 34.6088 63.9552 34.5288C64.1428 34.4535 64.3492 34.4111 64.565 34.4111C64.7808 34.4111 64.9872 34.4488 65.1749 34.5288C65.3625 34.6088 65.5267 34.717 65.6627 34.8535C65.7988 34.99 65.9067 35.1547 65.9864 35.3477C66.0615 35.5359 66.1037 35.7477 66.1037 35.9736ZM65.7847 35.9736C65.7847 35.7994 65.7566 35.6347 65.7003 35.4794C65.644 35.3241 65.5642 35.1876 65.4563 35.07C65.3484 34.9523 65.2218 34.8582 65.0717 34.7876C64.9215 34.717 64.748 34.6841 64.5603 34.6841C64.3727 34.6841 64.1991 34.717 64.049 34.7876C63.8989 34.8582 63.7676 34.9523 63.6643 35.07C63.5565 35.1876 63.4767 35.3241 63.4204 35.4794C63.3641 35.6347 63.336 35.7994 63.336 35.9736C63.336 36.1477 63.3641 36.3124 63.4204 36.4677C63.4767 36.623 63.5565 36.7595 63.6643 36.8772C63.7722 36.9948 63.8989 37.0889 64.049 37.1548C64.1991 37.2254 64.3727 37.2584 64.5603 37.2584C64.748 37.2584 64.9215 37.2254 65.0717 37.1548C65.2218 37.0842 65.3531 36.9901 65.4563 36.8772C65.5642 36.7595 65.644 36.623 65.7003 36.4677C65.7566 36.3124 65.7847 36.1477 65.7847 35.9736Z" fill="#191744"/>
<path d="M67.6941 37.041H67.7034L68.4446 34.4902H68.8011L69.5376 37.041H69.547L70.2694 34.4902H70.5884L69.7159 37.4551H69.3641L68.6229 34.9091H68.6135L67.8723 37.4551H67.5205L66.6479 34.4902H66.9622L67.6941 37.041Z" fill="#191744"/>
<path d="M71.5877 37.1869H73.1686V37.4551H71.2875V34.4902H73.117V34.7585H71.5877V35.775H73.0185V36.0433H71.5877V37.1869Z" fill="#191744"/>
<path d="M74.3085 37.4551H74.0083V34.4902H74.8761C75.0216 34.4902 75.1529 34.5044 75.2796 34.5326C75.4062 34.5608 75.5094 34.6079 75.5986 34.6691C75.6877 34.7302 75.7581 34.815 75.8097 34.9138C75.8613 35.0126 75.8847 35.135 75.8847 35.2809C75.8847 35.3891 75.866 35.4879 75.8284 35.5774C75.7909 35.6668 75.7346 35.7421 75.6689 35.808C75.6033 35.8738 75.5235 35.9256 75.4297 35.9633C75.3359 36.0009 75.2374 36.0291 75.1295 36.0386L75.9926 37.4504H75.6267L74.8105 36.0668H74.3085V37.4504V37.4551ZM74.3085 35.808H74.8292C75.0732 35.808 75.2561 35.7656 75.3875 35.6762C75.5188 35.5868 75.5845 35.455 75.5845 35.2809C75.5845 35.182 75.5657 35.102 75.5282 35.0361C75.4907 34.9703 75.4438 34.9138 75.3781 34.8714C75.3124 34.8291 75.2374 34.8008 75.1435 34.7773C75.0497 34.7538 74.9512 34.7491 74.8386 34.7491H74.3038V35.808H74.3085Z" fill="#191744"/>
<path d="M77.0576 37.1869H78.6384V37.4551H76.7573V34.4902H78.5868V34.7585H77.0576V35.775H78.4883V36.0433H77.0576V37.1869Z" fill="#191744"/>
<path d="M79.478 34.4902H80.4585C80.6414 34.4902 80.8244 34.5185 81.012 34.5844C81.195 34.6455 81.3638 34.7397 81.5139 34.862C81.6641 34.9844 81.7813 35.1397 81.8752 35.3279C81.969 35.5162 82.0112 35.728 82.0112 35.9727C82.0112 36.2174 81.9643 36.4386 81.8752 36.6221C81.7813 36.8057 81.6641 36.961 81.5139 37.0833C81.3638 37.2057 81.1996 37.2998 81.012 37.361C80.8291 37.4222 80.6414 37.4551 80.4585 37.4551H79.478V34.4902ZM79.7783 37.1869H80.374C80.5945 37.1869 80.7915 37.1539 80.9557 37.0833C81.1199 37.0127 81.2606 36.9233 81.3685 36.8104C81.4764 36.6974 81.5562 36.5704 81.6125 36.4245C81.6687 36.2786 81.6922 36.128 81.6922 35.9774C81.6922 35.8268 81.6641 35.6762 81.6125 35.5303C81.5562 35.3844 81.4764 35.2573 81.3685 35.1444C81.2606 35.0314 81.1246 34.9373 80.9557 34.8714C80.7915 34.8008 80.5945 34.7679 80.374 34.7679H79.7783V37.1963V37.1869Z" fill="#191744"/>
<path d="M84.183 34.4902H85.0649C85.1775 34.4902 85.2901 34.5044 85.4027 34.5232C85.5152 34.5467 85.6184 34.5891 85.7076 34.6455C85.7967 34.702 85.8718 34.782 85.9281 34.8761C85.9843 34.9703 86.0125 35.0973 86.0125 35.2432C86.0125 35.3985 85.9656 35.535 85.8718 35.6527C85.7779 35.7703 85.6513 35.8456 85.4918 35.8833V35.8927C85.6841 35.9162 85.8436 35.9915 85.9703 36.1139C86.0969 36.2409 86.1579 36.4151 86.1579 36.6315C86.1579 36.7539 86.1345 36.8668 86.0829 36.9704C86.0313 37.0739 85.9609 37.1586 85.8624 37.2292C85.7639 37.2998 85.6513 37.3563 85.5152 37.3939C85.3792 37.4316 85.2244 37.4551 85.0555 37.4551H84.183V34.4902ZM84.4832 35.7891H85.0884C85.1587 35.7891 85.2338 35.7797 85.3088 35.7656C85.3839 35.7515 85.4496 35.7185 85.5105 35.6809C85.5715 35.6385 85.6231 35.5868 85.6607 35.5209C85.6982 35.455 85.717 35.3703 85.717 35.2762C85.717 35.182 85.6982 35.102 85.6607 35.0361C85.6231 34.9703 85.5715 34.9185 85.5105 34.8761C85.4449 34.8338 85.3698 34.8055 85.2854 34.7867C85.2009 34.7679 85.1071 34.7585 85.0086 34.7585H84.4879V35.7985L84.4832 35.7891ZM84.4832 37.1963H85.0414C85.1493 37.1963 85.2525 37.1869 85.3511 37.1633C85.4496 37.1398 85.534 37.1069 85.6091 37.0645C85.6841 37.0174 85.7404 36.9563 85.7873 36.8857C85.8342 36.8104 85.853 36.721 85.853 36.6221C85.853 36.4245 85.7873 36.2786 85.656 36.1844C85.5246 36.0903 85.337 36.0386 85.093 36.0386H84.4785V37.1963H84.4832Z" fill="#191744"/>
<path d="M88.0999 37.4572H87.7997V36.1819L86.6926 34.4971H87.0679L87.9592 35.9324L88.8552 34.4971H89.207L88.0999 36.1819V37.4572Z" fill="#191744"/>
<path d="M99.9546 37.4526C99.7013 37.3114 99.4855 37.1044 99.3401 36.8408C99.19 36.582 99.1102 36.2808 99.1102 35.9749C99.1102 35.669 99.19 35.3725 99.3401 35.1137C99.4902 34.8548 99.7013 34.643 99.9546 34.5019C100.227 34.356 100.532 34.2807 100.837 34.2854C101.132 34.2807 101.423 34.3513 101.681 34.5019C101.92 34.6383 102.108 34.8595 102.216 35.1231L101.521 35.5184C101.362 35.2172 101.132 35.0666 100.832 35.0666C100.724 35.0666 100.621 35.0807 100.518 35.1231C100.419 35.1654 100.33 35.2266 100.25 35.3066C100.17 35.396 100.109 35.4996 100.072 35.6125C100.034 35.7255 100.016 35.8478 100.02 35.9702C100.016 36.0925 100.03 36.2149 100.072 36.3278C100.109 36.4408 100.17 36.5443 100.25 36.6337C100.325 36.7138 100.414 36.7796 100.518 36.822C100.616 36.8643 100.724 36.8832 100.832 36.8785C100.977 36.8785 101.118 36.8408 101.24 36.7608C101.362 36.6808 101.46 36.5632 101.521 36.4267L102.211 36.8314C102.098 37.0902 101.911 37.302 101.681 37.4385C101.423 37.5891 101.127 37.6644 100.832 37.6597C100.527 37.6597 100.227 37.5891 99.9499 37.4432L99.9546 37.4526Z" fill="#191744"/>
<path d="M105.72 34.3367L104.336 37.8193C104.195 38.2005 104.022 38.464 103.815 38.6193C103.595 38.7793 103.332 38.8594 103.065 38.8499C102.905 38.8499 102.746 38.8217 102.591 38.7699C102.45 38.7276 102.323 38.6523 102.211 38.5487L102.539 37.8711C102.61 37.9369 102.689 37.9887 102.774 38.0217C102.858 38.0546 102.947 38.0734 103.041 38.0781C103.149 38.0828 103.252 38.0499 103.337 37.984C103.426 37.8993 103.496 37.7911 103.543 37.6687L103.557 37.6358L102.23 34.332H103.149L104.007 36.558L104.875 34.332H105.729L105.72 34.3367Z" fill="#191744"/>
<path d="M106.593 37.452C106.339 37.3108 106.123 37.1038 105.978 36.8402C105.828 36.5814 105.748 36.2802 105.748 35.9743C105.748 35.6684 105.828 35.3719 105.978 35.1084C106.128 34.8495 106.339 34.6378 106.593 34.4966C106.865 34.3507 107.17 34.2754 107.474 34.2801C107.77 34.2707 108.061 34.346 108.324 34.4966C108.558 34.633 108.746 34.8542 108.854 35.1178L108.164 35.5131C108.005 35.2119 107.775 35.0613 107.474 35.0613C107.367 35.0613 107.263 35.0754 107.165 35.1178C107.066 35.1601 106.977 35.2213 106.902 35.3013C106.822 35.3907 106.761 35.4943 106.724 35.6072C106.686 35.7202 106.668 35.8425 106.672 35.9649C106.668 36.0872 106.682 36.2096 106.724 36.3226C106.761 36.4355 106.822 36.539 106.902 36.6285C106.977 36.7085 107.066 36.7743 107.17 36.8167C107.268 36.8591 107.376 36.8779 107.484 36.8732C107.629 36.8732 107.77 36.8355 107.892 36.7555C108.014 36.6755 108.112 36.5579 108.173 36.4214L108.863 36.8261C108.755 37.085 108.567 37.3014 108.338 37.4379C108.08 37.5885 107.784 37.6638 107.489 37.6591C107.179 37.6591 106.879 37.5885 106.602 37.4379L106.593 37.452Z" fill="#191744"/>
<path d="M109.909 37.4518C109.66 37.3153 109.449 37.1083 109.308 36.8494C109.163 36.5859 109.088 36.2847 109.093 35.9788C109.093 35.6729 109.163 35.3717 109.308 35.1081C109.454 34.854 109.66 34.6422 109.909 34.5058C110.176 34.3599 110.476 34.2846 110.781 34.2893C111.082 34.2846 111.382 34.3599 111.649 34.5058C111.898 34.6422 112.104 34.8493 112.25 35.1081C112.395 35.3717 112.47 35.6729 112.465 35.9788C112.47 36.2847 112.395 36.5859 112.25 36.8494C112.104 37.1036 111.898 37.3153 111.649 37.4518C111.382 37.5977 111.082 37.673 110.781 37.6683C110.481 37.673 110.181 37.5977 109.909 37.4518ZM111.34 36.6376C111.49 36.4588 111.569 36.2188 111.56 35.9741C111.569 35.7294 111.494 35.494 111.34 35.3105C111.269 35.2305 111.18 35.1646 111.082 35.1223C110.983 35.0799 110.88 35.0611 110.777 35.0658C110.673 35.0658 110.566 35.0799 110.472 35.1223C110.373 35.1646 110.284 35.2258 110.214 35.3105C110.139 35.3999 110.078 35.5035 110.04 35.6164C110.003 35.7294 109.984 35.8517 109.989 35.9694C109.984 36.0917 109.998 36.2141 110.036 36.327C110.073 36.44 110.134 36.5482 110.209 36.6376C110.284 36.7176 110.369 36.7835 110.467 36.8259C110.566 36.8682 110.669 36.8871 110.777 36.8824C110.88 36.8824 110.983 36.8682 111.082 36.8259C111.18 36.7835 111.265 36.7224 111.34 36.6423V36.6376Z" fill="#191744"/>
<path d="M116.176 33.0938V37.6211H115.327V37.2446C115.107 37.5269 114.788 37.6728 114.366 37.6728C114.094 37.6728 113.821 37.607 113.582 37.4658C113.352 37.3293 113.16 37.1222 113.033 36.8728C112.897 36.5998 112.827 36.2892 112.832 35.9786C112.827 35.668 112.897 35.3621 113.033 35.0939C113.16 34.8444 113.352 34.6374 113.587 34.5009C113.826 34.3597 114.098 34.2891 114.37 34.2938C114.764 34.2938 115.069 34.4256 115.29 34.6891V33.0985H116.176V33.0938ZM115.079 36.6422C115.154 36.5528 115.215 36.4492 115.252 36.3363C115.29 36.2233 115.309 36.101 115.304 35.9833C115.309 35.861 115.294 35.7433 115.252 35.6304C115.21 35.5174 115.154 35.4139 115.079 35.3245C114.929 35.1645 114.727 35.075 114.516 35.075C114.305 35.075 114.103 35.1645 113.953 35.3245C113.878 35.4139 113.817 35.5174 113.779 35.6304C113.742 35.7433 113.723 35.8657 113.728 35.9833C113.723 36.1057 113.737 36.2233 113.779 36.3363C113.817 36.4492 113.878 36.5528 113.953 36.6422C114.103 36.8022 114.305 36.8916 114.516 36.8916C114.727 36.8916 114.929 36.8022 115.079 36.6422Z" fill="#191744"/>
<path d="M119.98 36.247H117.654C117.691 36.4447 117.799 36.6141 117.949 36.7271C118.123 36.8494 118.324 36.9106 118.531 36.9059C118.676 36.9059 118.822 36.8824 118.958 36.8306C119.089 36.7741 119.206 36.6941 119.305 36.5859L119.779 37.1365C119.488 37.4942 119.066 37.673 118.517 37.6683C118.198 37.673 117.884 37.6024 117.597 37.4518C117.344 37.32 117.128 37.1083 116.983 36.8494C116.837 36.5859 116.762 36.2847 116.767 35.9788C116.767 35.6729 116.837 35.3717 116.983 35.1081C117.124 34.854 117.325 34.6422 117.569 34.5058C117.827 34.3599 118.113 34.2846 118.409 34.2893C118.695 34.2893 118.972 34.3552 119.225 34.4963C119.464 34.6328 119.666 34.8399 119.797 35.0893C119.938 35.367 120.009 35.6776 119.999 35.9929C119.999 36.0023 119.994 36.087 119.98 36.247ZM117.893 35.1929C117.752 35.3199 117.663 35.4988 117.64 35.6917H119.155C119.131 35.4988 119.042 35.3199 118.901 35.1929C118.761 35.0658 118.582 34.9999 118.4 35.0046C118.217 34.9999 118.034 35.0658 117.893 35.1881V35.1929Z" fill="#191744"/>
<path fill-rule="evenodd" clip-rule="evenodd" d="M96.5162 34.3926L94.3958 33.1455C94.3395 33.1126 94.2692 33.0938 94.2035 33.0938C94.1378 33.0938 94.0721 33.1126 94.0111 33.1455L93.5749 33.3997L96.0799 34.8727V37.0752L95.456 37.4422L93.5796 36.341V35.988C93.6499 35.9221 93.6969 35.8374 93.7156 35.7433C93.7344 35.6492 93.7297 35.5504 93.6922 35.4609C93.6546 35.3715 93.5936 35.2962 93.5186 35.2445C93.4388 35.1927 93.345 35.1645 93.2512 35.1645C93.1574 35.1645 93.0636 35.1974 92.9885 35.2539C92.9134 35.3103 92.8525 35.3856 92.8196 35.4798C92.7868 35.5692 92.7821 35.668 92.8056 35.7621C92.829 35.8563 92.8806 35.941 92.951 36.0022V36.7128L95.456 38.1811L96.5162 37.5599C96.5725 37.5269 96.6241 37.4752 96.6569 37.4187C96.6897 37.3575 96.7085 37.2916 96.7085 37.2258V34.7362C96.7085 34.6656 96.6897 34.5997 96.6569 34.5432C96.6241 34.4821 96.5725 34.435 96.5162 34.4021V34.3926Z" fill="#191744"/>
<path fill-rule="evenodd" clip-rule="evenodd" d="M95.4559 35.941V35.2398L92.9509 33.7715L91.8907 34.3927C91.8344 34.4256 91.7828 34.4774 91.75 34.5339C91.7171 34.5951 91.6984 34.6609 91.6984 34.7268V37.2164C91.6984 37.287 91.7171 37.3529 91.75 37.4093C91.7828 37.4705 91.8297 37.5176 91.8907 37.5505L94.011 38.793C94.0673 38.8259 94.1377 38.8447 94.2034 38.8447C94.2691 38.8447 94.3347 38.8259 94.3957 38.793L94.8273 38.5388L92.327 37.0658V34.8633L92.9509 34.4962L94.8273 35.5975V35.9363C94.7569 36.0022 94.71 36.0869 94.6866 36.181C94.6678 36.2752 94.6725 36.374 94.71 36.4634C94.7429 36.5528 94.8038 36.6281 94.8836 36.6846C94.9633 36.7364 95.0525 36.7646 95.151 36.7646C95.2448 36.7646 95.3386 36.7317 95.4137 36.6799C95.4887 36.6234 95.5497 36.5481 95.5825 36.4587C95.6154 36.3693 95.6201 36.2705 95.5966 36.1763C95.5732 36.0822 95.5216 35.9975 95.4512 35.9363L95.4559 35.941Z" fill="#191744"/>
<path d="M755.502 29.4961H830V30.3164H755.502V29.4961Z" fill="#1F2328"/>
<path d="M826.117 27.0967C824.012 27.0967 822.74 25.6201 822.74 23.3096V23.3027C822.74 21.0264 824.039 19.4678 826.042 19.4678C828.045 19.4678 829.262 20.958 829.262 23.1592V23.624H823.957C823.991 25.1484 824.832 26.0371 826.145 26.0371C827.143 26.0371 827.758 25.5654 827.956 25.1211L827.983 25.0596H829.173L829.159 25.1143C828.906 26.1123 827.854 27.0967 826.117 27.0967ZM826.035 20.5273C824.941 20.5273 824.107 21.2725 823.978 22.6738H828.052C827.929 21.2178 827.122 20.5273 826.035 20.5273Z" fill="#0969DA"/>
<path d="M817.982 26.9668V19.5977H819.172V20.6914H819.281C819.562 19.9189 820.252 19.4678 821.25 19.4678C821.476 19.4678 821.729 19.4951 821.845 19.5156V20.6709C821.599 20.6299 821.373 20.6025 821.113 20.6025C819.979 20.6025 819.172 21.3203 819.172 22.4004V26.9668H817.982Z" fill="#0969DA"/>
<path d="M812.739 27.0967C810.641 27.0967 809.342 25.6475 809.342 23.2891V23.2754C809.342 20.9102 810.641 19.4678 812.739 19.4678C814.838 19.4678 816.137 20.9102 816.137 23.2754V23.2891C816.137 25.6475 814.838 27.0967 812.739 27.0967ZM812.739 26.0439C814.134 26.0439 814.92 25.0254 814.92 23.2891V23.2754C814.92 21.5322 814.134 20.5205 812.739 20.5205C811.345 20.5205 810.559 21.5322 810.559 23.2754V23.2891C810.559 25.0254 811.345 26.0439 812.739 26.0439Z" fill="#0969DA"/>
<path d="M797.529 26.9668V19.5977H798.719V20.7188H798.828C799.156 19.9258 799.854 19.4678 800.817 19.4678C801.815 19.4678 802.513 19.9941 802.854 20.7598H802.964C803.36 19.9805 804.201 19.4678 805.22 19.4678C806.724 19.4678 807.564 20.3291 807.564 21.874V26.9668H806.375V22.1475C806.375 21.0605 805.876 20.5205 804.837 20.5205C803.812 20.5205 803.135 21.293 803.135 22.2295V26.9668H801.945V21.9629C801.945 21.0879 801.344 20.5205 800.414 20.5205C799.45 20.5205 798.719 21.3613 798.719 22.4004V26.9668H797.529Z" fill="#0969DA"/>
<path d="M785.416 26.9668V19.5977H786.605V20.7051H786.715C787.084 19.9258 787.774 19.4678 788.861 19.4678C790.516 19.4678 791.438 20.4453 791.438 22.1953V26.9668H790.249V22.4824C790.249 21.1562 789.702 20.5205 788.526 20.5205C787.351 20.5205 786.605 21.3135 786.605 22.6055V26.9668H785.416Z" fill="#0969DA"/>
<path d="M779.947 26.9668V19.5977H781.137V20.6914H781.246C781.526 19.9189 782.217 19.4678 783.215 19.4678C783.44 19.4678 783.693 19.4951 783.81 19.5156V20.6709C783.563 20.6299 783.338 20.6025 783.078 20.6025C781.943 20.6025 781.137 21.3203 781.137 22.4004V26.9668H779.947Z" fill="#0969DA"/>
<path d="M774.246 27.0967C772.845 27.0967 771.785 26.249 771.785 24.9092V24.8955C771.785 23.583 772.756 22.8242 774.472 22.7217L776.584 22.5918V21.9219C776.584 21.0127 776.03 20.5205 774.93 20.5205C774.048 20.5205 773.467 20.8486 773.275 21.4229L773.269 21.4434H772.079L772.086 21.4023C772.277 20.2471 773.398 19.4678 774.971 19.4678C776.769 19.4678 777.773 20.3906 777.773 21.9219V26.9668H776.584V25.8799H776.475C776.01 26.666 775.237 27.0967 774.246 27.0967ZM773.002 24.8818C773.002 25.627 773.638 26.0645 774.492 26.0645C775.702 26.0645 776.584 25.2715 776.584 24.2188V23.5488L774.615 23.6719C773.494 23.7402 773.002 24.1367 773.002 24.8682V24.8818Z" fill="#0969DA"/>
<path d="M767.232 27.0967C765.127 27.0967 763.855 25.6201 763.855 23.3096V23.3027C763.855 21.0264 765.154 19.4678 767.157 19.4678C769.16 19.4678 770.377 20.958 770.377 23.1592V23.624H765.072C765.106 25.1484 765.947 26.0371 767.26 26.0371C768.258 26.0371 768.873 25.5654 769.071 25.1211L769.099 25.0596H770.288L770.274 25.1143C770.021 26.1123 768.969 27.0967 767.232 27.0967ZM767.15 20.5273C766.057 20.5273 765.223 21.2725 765.093 22.6738H769.167C769.044 21.2178 768.237 20.5273 767.15 20.5273Z" fill="#0969DA"/>
<path d="M756.76 26.9668V17.1025H757.99V25.8594H762.748V26.9668H756.76Z" fill="#0969DA"/>
<path d="M749.486 27.0352C749.001 27.0352 748.598 26.6318 748.598 26.1465C748.598 25.6543 749.001 25.2578 749.486 25.2578C749.979 25.2578 750.375 25.6543 750.375 26.1465C750.375 26.6318 749.979 27.0352 749.486 27.0352Z" fill="#1F2328"/>
<path d="M743.717 27.0967C742.076 27.0967 740.948 26.3037 740.812 25.0869H742.028C742.227 25.7021 742.814 26.1055 743.758 26.1055C744.749 26.1055 745.453 25.6338 745.453 24.9639V24.9502C745.453 24.4512 745.077 24.1025 744.168 23.8838L743.026 23.6104C741.646 23.2822 741.023 22.6807 741.023 21.6211V21.6143C741.023 20.3906 742.199 19.4678 743.765 19.4678C745.31 19.4678 746.383 20.2402 746.547 21.4434H745.378C745.221 20.8623 744.646 20.459 743.758 20.459C742.883 20.459 742.24 20.9102 742.24 21.5596V21.5732C742.24 22.0723 742.609 22.3867 743.478 22.5986L744.612 22.8721C746 23.207 746.67 23.8086 746.67 24.8613V24.875C746.67 26.1875 745.392 27.0967 743.717 27.0967Z" fill="#1F2328"/>
<path d="M737.715 26.9668V16.6719H738.904V26.9668H737.715Z" fill="#1F2328"/>
<path d="M732.403 27.0967C730.305 27.0967 729.006 25.6475 729.006 23.2891V23.2754C729.006 20.9102 730.305 19.4678 732.403 19.4678C734.502 19.4678 735.801 20.9102 735.801 23.2754V23.2891C735.801 25.6475 734.502 27.0967 732.403 27.0967ZM732.403 26.0439C733.798 26.0439 734.584 25.0254 734.584 23.2891V23.2754C734.584 21.5322 733.798 20.5205 732.403 20.5205C731.009 20.5205 730.223 21.5322 730.223 23.2754V23.2891C730.223 25.0254 731.009 26.0439 732.403 26.0439Z" fill="#1F2328"/>
<path d="M724.132 27.0967C722.033 27.0967 720.734 25.6475 720.734 23.2891V23.2754C720.734 20.9102 722.033 19.4678 724.132 19.4678C726.23 19.4678 727.529 20.9102 727.529 23.2754V23.2891C727.529 25.6475 726.23 27.0967 724.132 27.0967ZM724.132 26.0439C725.526 26.0439 726.312 25.0254 726.312 23.2891V23.2754C726.312 21.5322 725.526 20.5205 724.132 20.5205C722.737 20.5205 721.951 21.5322 721.951 23.2754V23.2891C721.951 25.0254 722.737 26.0439 724.132 26.0439Z" fill="#1F2328"/>
<path d="M718.745 27.0215C717.228 27.0215 716.592 26.4609 716.592 25.0527V20.582H715.43V19.5977H716.592V17.6904H717.822V19.5977H719.436V20.582H717.822V24.752C717.822 25.6201 718.123 25.9688 718.889 25.9688C719.101 25.9688 719.217 25.9619 719.436 25.9414V26.9531C719.203 26.9941 718.978 27.0215 718.745 27.0215Z" fill="#1F2328"/>
<path d="M705.217 29.5508C705.06 29.5508 704.854 29.5371 704.69 29.5098V28.5322C704.834 28.5596 705.019 28.5664 705.183 28.5664C705.859 28.5664 706.27 28.2588 706.536 27.4111L706.673 26.9736L703.945 19.5977H705.217L707.24 25.6611H707.35L709.366 19.5977H710.617L707.739 27.418C707.131 29.0723 706.522 29.5508 705.217 29.5508Z" fill="#1F2328"/>
<path d="M702.12 27.0215C700.603 27.0215 699.967 26.4609 699.967 25.0527V20.582H698.805V19.5977H699.967V17.6904H701.197V19.5977H702.811V20.582H701.197V24.752C701.197 25.6201 701.498 25.9688 702.264 25.9688C702.476 25.9688 702.592 25.9619 702.811 25.9414V26.9531C702.578 26.9941 702.353 27.0215 702.12 27.0215Z" fill="#1F2328"/>
<path d="M696.672 18.1758C696.221 18.1758 695.852 17.8066 695.852 17.3555C695.852 16.9043 696.221 16.5352 696.672 16.5352C697.123 16.5352 697.492 16.9043 697.492 17.3555C697.492 17.8066 697.123 18.1758 696.672 18.1758ZM696.07 26.9668V19.5977H697.26V26.9668H696.07Z" fill="#1F2328"/>
<path d="M690.711 26.9668V19.5977H691.9V20.6914H692.01C692.29 19.9189 692.98 19.4678 693.979 19.4678C694.204 19.4678 694.457 19.4951 694.573 19.5156V20.6709C694.327 20.6299 694.102 20.6025 693.842 20.6025C692.707 20.6025 691.9 21.3203 691.9 22.4004V26.9668H690.711Z" fill="#1F2328"/>
<path d="M685.003 27.0967C683.328 27.0967 682.467 26.1123 682.467 24.3691V19.5977H683.656V24.082C683.656 25.4082 684.135 26.0439 685.311 26.0439C686.609 26.0439 687.3 25.251 687.3 23.959V19.5977H688.489V26.9668H687.3V25.8662H687.19C686.828 26.6523 686.083 27.0967 685.003 27.0967Z" fill="#1F2328"/>
<path d="M677.716 27.0967C675.651 27.0967 674.332 25.5996 674.332 23.2617V23.248C674.332 20.958 675.645 19.4678 677.709 19.4678C679.5 19.4678 680.573 20.5 680.792 21.8125L680.799 21.8535H679.616L679.609 21.833C679.425 21.1084 678.769 20.5205 677.709 20.5205C676.383 20.5205 675.549 21.5869 675.549 23.248V23.2617C675.549 24.957 676.396 26.0439 677.709 26.0439C678.7 26.0439 679.329 25.6064 679.603 24.7861L679.616 24.7451L680.792 24.7383L680.778 24.8135C680.478 26.1465 679.486 27.0967 677.716 27.0967Z" fill="#1F2328"/>
<path d="M669.711 27.0967C667.605 27.0967 666.334 25.6201 666.334 23.3096V23.3027C666.334 21.0264 667.633 19.4678 669.636 19.4678C671.639 19.4678 672.855 20.958 672.855 23.1592V23.624H667.551C667.585 25.1484 668.426 26.0371 669.738 26.0371C670.736 26.0371 671.352 25.5654 671.55 25.1211L671.577 25.0596H672.767L672.753 25.1143C672.5 26.1123 671.447 27.0967 669.711 27.0967ZM669.629 20.5273C668.535 20.5273 667.701 21.2725 667.571 22.6738H671.646C671.522 21.2178 670.716 20.5273 669.629 20.5273Z" fill="#1F2328"/>
<path d="M661.904 27.0967C660.264 27.0967 659.136 26.3037 658.999 25.0869H660.216C660.414 25.7021 661.002 26.1055 661.945 26.1055C662.937 26.1055 663.641 25.6338 663.641 24.9639V24.9502C663.641 24.4512 663.265 24.1025 662.355 23.8838L661.214 23.6104C659.833 23.2822 659.211 22.6807 659.211 21.6211V21.6143C659.211 20.3906 660.387 19.4678 661.952 19.4678C663.497 19.4678 664.57 20.2402 664.734 21.4434H663.565C663.408 20.8623 662.834 20.459 661.945 20.459C661.07 20.459 660.428 20.9102 660.428 21.5596V21.5732C660.428 22.0723 660.797 22.3867 661.665 22.5986L662.8 22.8721C664.188 23.207 664.857 23.8086 664.857 24.8613V24.875C664.857 26.1875 663.579 27.0967 661.904 27.0967Z" fill="#1F2328"/>
<path d="M650.105 26.9668V19.5977H651.295V20.6914H651.404C651.685 19.9189 652.375 19.4678 653.373 19.4678C653.599 19.4678 653.852 19.4951 653.968 19.5156V20.6709C653.722 20.6299 653.496 20.6025 653.236 20.6025C652.102 20.6025 651.295 21.3203 651.295 22.4004V26.9668H650.105Z" fill="#1F2328"/>
<path d="M645.115 27.0967C643.01 27.0967 641.738 25.6201 641.738 23.3096V23.3027C641.738 21.0264 643.037 19.4678 645.04 19.4678C647.043 19.4678 648.26 20.958 648.26 23.1592V23.624H642.955C642.989 25.1484 643.83 26.0371 645.143 26.0371C646.141 26.0371 646.756 25.5654 646.954 25.1211L646.981 25.0596H648.171L648.157 25.1143C647.904 26.1123 646.852 27.0967 645.115 27.0967ZM645.033 20.5273C643.939 20.5273 643.105 21.2725 642.976 22.6738H647.05C646.927 21.2178 646.12 20.5273 645.033 20.5273Z" fill="#1F2328"/>
<path d="M633.562 29.4277V19.5977H634.752V20.7734H634.861C635.312 19.9531 636.133 19.4678 637.158 19.4678C639.024 19.4678 640.248 20.9785 640.248 23.2754V23.2891C640.248 25.5996 639.031 27.0967 637.158 27.0967C636.146 27.0967 635.265 26.5908 634.861 25.8047H634.752V29.4277H633.562ZM636.885 26.0439C638.231 26.0439 639.031 25.0049 639.031 23.2891V23.2754C639.031 21.5596 638.231 20.5205 636.885 20.5205C635.545 20.5205 634.725 21.5732 634.725 23.2754V23.2891C634.725 24.9912 635.545 26.0439 636.885 26.0439Z" fill="#1F2328"/>
<path d="M628.319 27.0967C626.221 27.0967 624.922 25.6475 624.922 23.2891V23.2754C624.922 20.9102 626.221 19.4678 628.319 19.4678C630.418 19.4678 631.717 20.9102 631.717 23.2754V23.2891C631.717 25.6475 630.418 27.0967 628.319 27.0967ZM628.319 26.0439C629.714 26.0439 630.5 25.0254 630.5 23.2891V23.2754C630.5 21.5322 629.714 20.5205 628.319 20.5205C626.925 20.5205 626.139 21.5322 626.139 23.2754V23.2891C626.139 25.0254 626.925 26.0439 628.319 26.0439Z" fill="#1F2328"/>
<path d="M621.818 26.9668V16.6719H623.008V26.9668H621.818Z" fill="#1F2328"/>
<path d="M616.76 27.0967C614.654 27.0967 613.383 25.6201 613.383 23.3096V23.3027C613.383 21.0264 614.682 19.4678 616.685 19.4678C618.688 19.4678 619.904 20.958 619.904 23.1592V23.624H614.6C614.634 25.1484 615.475 26.0371 616.787 26.0371C617.785 26.0371 618.4 25.5654 618.599 25.1211L618.626 25.0596H619.815L619.802 25.1143C619.549 26.1123 618.496 27.0967 616.76 27.0967ZM616.678 20.5273C615.584 20.5273 614.75 21.2725 614.62 22.6738H618.694C618.571 21.2178 617.765 20.5273 616.678 20.5273Z" fill="#1F2328"/>
<path d="M608.522 26.9668L605.795 19.5977H607.053L609.069 25.668H609.179L611.195 19.5977H612.453L609.726 26.9668H608.522Z" fill="#1F2328"/>
<path d="M601.584 27.0967C599.479 27.0967 598.207 25.6201 598.207 23.3096V23.3027C598.207 21.0264 599.506 19.4678 601.509 19.4678C603.512 19.4678 604.729 20.958 604.729 23.1592V23.624H599.424C599.458 25.1484 600.299 26.0371 601.611 26.0371C602.609 26.0371 603.225 25.5654 603.423 25.1211L603.45 25.0596H604.64L604.626 25.1143C604.373 26.1123 603.32 27.0967 601.584 27.0967ZM601.502 20.5273C600.408 20.5273 599.574 21.2725 599.444 22.6738H603.519C603.396 21.2178 602.589 20.5273 601.502 20.5273Z" fill="#1F2328"/>
<path d="M592.697 27.0967C590.831 27.0967 589.607 25.5859 589.607 23.2891V23.2754C589.607 20.9648 590.824 19.4678 592.697 19.4678C593.709 19.4678 594.591 19.9736 594.994 20.7598H595.104V16.6719H596.293V26.9668H595.104V25.791H594.994C594.543 26.6113 593.723 27.0967 592.697 27.0967ZM592.971 26.0439C594.311 26.0439 595.131 24.9912 595.131 23.2891V23.2754C595.131 21.5732 594.311 20.5205 592.971 20.5205C591.624 20.5205 590.824 21.5596 590.824 23.2754V23.2891C590.824 25.0049 591.624 26.0439 592.971 26.0439Z" fill="#1F2328"/>
<path d="M577.863 26.9668V19.5977H579.053V20.7051H579.162C579.531 19.9258 580.222 19.4678 581.309 19.4678C582.963 19.4678 583.886 20.4453 583.886 22.1953V26.9668H582.696V22.4824C582.696 21.1562 582.149 20.5205 580.974 20.5205C579.798 20.5205 579.053 21.3135 579.053 22.6055V26.9668H577.863Z" fill="#1F2328"/>
<path d="M572.873 27.0967C570.768 27.0967 569.496 25.6201 569.496 23.3096V23.3027C569.496 21.0264 570.795 19.4678 572.798 19.4678C574.801 19.4678 576.018 20.958 576.018 23.1592V23.624H570.713C570.747 25.1484 571.588 26.0371 572.9 26.0371C573.898 26.0371 574.514 25.5654 574.712 25.1211L574.739 25.0596H575.929L575.915 25.1143C575.662 26.1123 574.609 27.0967 572.873 27.0967ZM572.791 20.5273C571.697 20.5273 570.863 21.2725 570.733 22.6738H574.808C574.685 21.2178 573.878 20.5273 572.791 20.5273Z" fill="#1F2328"/>
<path d="M561.32 29.4277V19.5977H562.51V20.7734H562.619C563.07 19.9531 563.891 19.4678 564.916 19.4678C566.782 19.4678 568.006 20.9785 568.006 23.2754V23.2891C568.006 25.5996 566.789 27.0967 564.916 27.0967C563.904 27.0967 563.022 26.5908 562.619 25.8047H562.51V29.4277H561.32ZM564.643 26.0439C565.989 26.0439 566.789 25.0049 566.789 23.2891V23.2754C566.789 21.5596 565.989 20.5205 564.643 20.5205C563.303 20.5205 562.482 21.5732 562.482 23.2754V23.2891C562.482 24.9912 563.303 26.0439 564.643 26.0439Z" fill="#1F2328"/>
<path d="M556.077 27.0967C553.979 27.0967 552.68 25.6475 552.68 23.2891V23.2754C552.68 20.9102 553.979 19.4678 556.077 19.4678C558.176 19.4678 559.475 20.9102 559.475 23.2754V23.2891C559.475 25.6475 558.176 27.0967 556.077 27.0967ZM556.077 26.0439C557.472 26.0439 558.258 25.0254 558.258 23.2891V23.2754C558.258 21.5322 557.472 20.5205 556.077 20.5205C554.683 20.5205 553.896 21.5322 553.896 23.2754V23.2891C553.896 25.0254 554.683 26.0439 556.077 26.0439Z" fill="#1F2328"/>
<path d="M542.159 27.1514C540.197 27.1514 538.823 25.9893 538.823 24.3418V24.3281C538.823 23.1318 539.473 22.2227 540.806 21.5664L541.168 21.3887C540.245 20.3633 539.924 19.7617 539.924 19.085V19.0713C539.924 17.8135 540.997 16.8701 542.439 16.8701C543.896 16.8701 544.955 17.7998 544.955 19.085V19.0986C544.955 20.0693 544.388 20.8076 542.822 21.6416L545.242 24.2256C545.591 23.501 545.755 22.6055 545.755 21.6416V21.4707H546.903V21.6484C546.903 22.9951 546.637 24.1914 546.083 25.1211L547.806 26.96V26.9668H546.261L545.386 26.0029C544.62 26.7275 543.554 27.1514 542.159 27.1514ZM541.1 19.1533C541.1 19.666 541.38 20.0898 542.166 20.9443C543.403 20.3018 543.8 19.8027 543.8 19.1396V19.126C543.8 18.3672 543.246 17.8477 542.446 17.8477C541.66 17.8477 541.1 18.3809 541.1 19.1396V19.1533ZM540.054 24.2598C540.054 25.3604 540.949 26.1123 542.269 26.1123C543.273 26.1123 544.053 25.7568 544.613 25.1621L541.845 22.1338L541.517 22.291C540.573 22.7422 540.054 23.4326 540.054 24.2461V24.2598Z" fill="#1F2328"/>
<path d="M530.217 27.0967C528.111 27.0967 526.84 25.6201 526.84 23.3096V23.3027C526.84 21.0264 528.139 19.4678 530.142 19.4678C532.145 19.4678 533.361 20.958 533.361 23.1592V23.624H528.057C528.091 25.1484 528.932 26.0371 530.244 26.0371C531.242 26.0371 531.857 25.5654 532.056 25.1211L532.083 25.0596H533.272L533.259 25.1143C533.006 26.1123 531.953 27.0967 530.217 27.0967ZM530.135 20.5273C529.041 20.5273 528.207 21.2725 528.077 22.6738H532.151C532.028 21.2178 531.222 20.5273 530.135 20.5273Z" fill="#1F2328"/>
<path d="M522.219 27.0967C520.113 27.0967 518.842 25.6201 518.842 23.3096V23.3027C518.842 21.0264 520.141 19.4678 522.144 19.4678C524.146 19.4678 525.363 20.958 525.363 23.1592V23.624H520.059C520.093 25.1484 520.934 26.0371 522.246 26.0371C523.244 26.0371 523.859 25.5654 524.058 25.1211L524.085 25.0596H525.274L525.261 25.1143C525.008 26.1123 523.955 27.0967 522.219 27.0967ZM522.137 20.5273C521.043 20.5273 520.209 21.2725 520.079 22.6738H524.153C524.03 21.2178 523.224 20.5273 522.137 20.5273Z" fill="#1F2328"/>
<path d="M514.084 26.9668V19.5977H515.273V20.6914H515.383C515.663 19.9189 516.354 19.4678 517.352 19.4678C517.577 19.4678 517.83 19.4951 517.946 19.5156V20.6709C517.7 20.6299 517.475 20.6025 517.215 20.6025C516.08 20.6025 515.273 21.3203 515.273 22.4004V26.9668H514.084Z" fill="#1F2328"/>
<path d="M509.504 26.9668V20.582H508.28V19.5977H509.504V18.7773C509.504 17.3076 510.242 16.6035 511.644 16.6035C511.931 16.6035 512.19 16.624 512.437 16.6719V17.6221C512.293 17.5947 512.095 17.5879 511.883 17.5879C511.035 17.5879 510.693 18.0049 510.693 18.8115V19.5977H512.368V20.582H510.693V26.9668H509.504Z" fill="#1F2328"/>
<path d="M499.742 26.9668V19.5977H500.932V20.6914H501.041C501.321 19.9189 502.012 19.4678 503.01 19.4678C503.235 19.4678 503.488 19.4951 503.604 19.5156V20.6709C503.358 20.6299 503.133 20.6025 502.873 20.6025C501.738 20.6025 500.932 21.3203 500.932 22.4004V26.9668H499.742Z" fill="#1F2328"/>
<path d="M494.499 27.0967C492.4 27.0967 491.102 25.6475 491.102 23.2891V23.2754C491.102 20.9102 492.4 19.4678 494.499 19.4678C496.598 19.4678 497.896 20.9102 497.896 23.2754V23.2891C497.896 25.6475 496.598 27.0967 494.499 27.0967ZM494.499 26.0439C495.894 26.0439 496.68 25.0254 496.68 23.2891V23.2754C496.68 21.5322 495.894 20.5205 494.499 20.5205C493.104 20.5205 492.318 21.5322 492.318 23.2754V23.2891C492.318 25.0254 493.104 26.0439 494.499 26.0439Z" fill="#1F2328"/>
<path d="M487.205 26.9668V20.582H485.981V19.5977H487.205V18.7773C487.205 17.3076 487.943 16.6035 489.345 16.6035C489.632 16.6035 489.892 16.624 490.138 16.6719V17.6221C489.994 17.5947 489.796 17.5879 489.584 17.5879C488.736 17.5879 488.395 18.0049 488.395 18.8115V19.5977H490.069V20.582H488.395V26.9668H487.205Z" fill="#1F2328"/>
<path d="M477.84 27.0967C476.814 27.0967 475.994 26.6113 475.543 25.791H475.434V26.9668H474.244V16.6719H475.434V20.7598H475.543C475.946 19.9736 476.828 19.4678 477.84 19.4678C479.713 19.4678 480.93 20.9648 480.93 23.2754V23.2891C480.93 25.5859 479.706 27.0967 477.84 27.0967ZM477.566 26.0439C478.913 26.0439 479.713 25.0049 479.713 23.2891V23.2754C479.713 21.5596 478.913 20.5205 477.566 20.5205C476.227 20.5205 475.406 21.5732 475.406 23.2754V23.2891C475.406 24.9912 476.227 26.0439 477.566 26.0439Z" fill="#1F2328"/>
<path d="M468.468 27.0967C466.793 27.0967 465.932 26.1123 465.932 24.3691V19.5977H467.121V24.082C467.121 25.4082 467.6 26.0439 468.775 26.0439C470.074 26.0439 470.765 25.251 470.765 23.959V19.5977H471.954V26.9668H470.765V25.8662H470.655C470.293 26.6523 469.548 27.0967 468.468 27.0967Z" fill="#1F2328"/>
<path d="M457.824 26.9668V16.6719H459.014V20.7051H459.123C459.492 19.9258 460.183 19.4678 461.27 19.4678C462.924 19.4678 463.847 20.4453 463.847 22.1953V26.9668H462.657V22.4824C462.657 21.1562 462.11 20.5205 460.935 20.5205C459.759 20.5205 459.014 21.3135 459.014 22.6055V26.9668H457.824Z" fill="#1F2328"/>
<path d="M446.846 29.5508C446.688 29.5508 446.483 29.5371 446.319 29.5098V28.5322C446.463 28.5596 446.647 28.5664 446.812 28.5664C447.488 28.5664 447.898 28.2588 448.165 27.4111L448.302 26.9736L445.574 19.5977H446.846L448.869 25.6611H448.979L450.995 19.5977H452.246L449.368 27.418C448.76 29.0723 448.151 29.5508 446.846 29.5508Z" fill="#1F2328"/>
<path d="M443.749 27.0215C442.231 27.0215 441.596 26.4609 441.596 25.0527V20.582H440.434V19.5977H441.596V17.6904H442.826V19.5977H444.439V20.582H442.826V24.752C442.826 25.6201 443.127 25.9688 443.893 25.9688C444.104 25.9688 444.221 25.9619 444.439 25.9414V26.9531C444.207 26.9941 443.981 27.0215 443.749 27.0215Z" fill="#1F2328"/>
<path d="M438.301 18.1758C437.85 18.1758 437.48 17.8066 437.48 17.3555C437.48 16.9043 437.85 16.5352 438.301 16.5352C438.752 16.5352 439.121 16.9043 439.121 17.3555C439.121 17.8066 438.752 18.1758 438.301 18.1758ZM437.699 26.9668V19.5977H438.889V26.9668H437.699Z" fill="#1F2328"/>
<path d="M429.496 26.9668V19.5977H430.686V20.7051H430.795C431.164 19.9258 431.854 19.4678 432.941 19.4678C434.596 19.4678 435.519 20.4453 435.519 22.1953V26.9668H434.329V22.4824C434.329 21.1562 433.782 20.5205 432.606 20.5205C431.431 20.5205 430.686 21.3135 430.686 22.6055V26.9668H429.496Z" fill="#1F2328"/>
<path d="M423.788 27.0967C422.113 27.0967 421.252 26.1123 421.252 24.3691V19.5977H422.441V24.082C422.441 25.4082 422.92 26.0439 424.096 26.0439C425.395 26.0439 426.085 25.251 426.085 23.959V19.5977H427.274V26.9668H426.085V25.8662H425.976C425.613 26.6523 424.868 27.0967 423.788 27.0967Z" fill="#1F2328"/>
<path d="M409.139 26.9668V19.5977H410.328V20.7188H410.438C410.766 19.9258 411.463 19.4678 412.427 19.4678C413.425 19.4678 414.122 19.9941 414.464 20.7598H414.573C414.97 19.9805 415.811 19.4678 416.829 19.4678C418.333 19.4678 419.174 20.3291 419.174 21.874V26.9668H417.984V22.1475C417.984 21.0605 417.485 20.5205 416.446 20.5205C415.421 20.5205 414.744 21.293 414.744 22.2295V26.9668H413.555V21.9629C413.555 21.0879 412.953 20.5205 412.023 20.5205C411.06 20.5205 410.328 21.3613 410.328 22.4004V26.9668H409.139Z" fill="#1F2328"/>
<path d="M396.957 26.9668V19.5977H398.146V20.7188H398.256C398.584 19.9258 399.281 19.4678 400.245 19.4678C401.243 19.4678 401.94 19.9941 402.282 20.7598H402.392C402.788 19.9805 403.629 19.4678 404.647 19.4678C406.151 19.4678 406.992 20.3291 406.992 21.874V26.9668H405.803V22.1475C405.803 21.0605 405.304 20.5205 404.265 20.5205C403.239 20.5205 402.562 21.293 402.562 22.2295V26.9668H401.373V21.9629C401.373 21.0879 400.771 20.5205 399.842 20.5205C398.878 20.5205 398.146 21.3613 398.146 22.4004V26.9668H396.957Z" fill="#1F2328"/>
<path d="M391.714 27.0967C389.615 27.0967 388.316 25.6475 388.316 23.2891V23.2754C388.316 20.9102 389.615 19.4678 391.714 19.4678C393.812 19.4678 395.111 20.9102 395.111 23.2754V23.2891C395.111 25.6475 393.812 27.0967 391.714 27.0967ZM391.714 26.0439C393.108 26.0439 393.895 25.0254 393.895 23.2891V23.2754C393.895 21.5322 393.108 20.5205 391.714 20.5205C390.319 20.5205 389.533 21.5322 389.533 23.2754V23.2891C389.533 25.0254 390.319 26.0439 391.714 26.0439Z" fill="#1F2328"/>
<path d="M383.866 27.0967C381.802 27.0967 380.482 25.5996 380.482 23.2617V23.248C380.482 20.958 381.795 19.4678 383.859 19.4678C385.65 19.4678 386.724 20.5 386.942 21.8125L386.949 21.8535H385.767L385.76 21.833C385.575 21.1084 384.919 20.5205 383.859 20.5205C382.533 20.5205 381.699 21.5869 381.699 23.248V23.2617C381.699 24.957 382.547 26.0439 383.859 26.0439C384.851 26.0439 385.479 25.6064 385.753 24.7861L385.767 24.7451L386.942 24.7383L386.929 24.8135C386.628 26.1465 385.637 27.0967 383.866 27.0967Z" fill="#1F2328"/>
<path d="M371.924 27.0967C369.818 27.0967 368.547 25.6201 368.547 23.3096V23.3027C368.547 21.0264 369.846 19.4678 371.849 19.4678C373.852 19.4678 375.068 20.958 375.068 23.1592V23.624H369.764C369.798 25.1484 370.639 26.0371 371.951 26.0371C372.949 26.0371 373.564 25.5654 373.763 25.1211L373.79 25.0596H374.979L374.966 25.1143C374.713 26.1123 373.66 27.0967 371.924 27.0967ZM371.842 20.5273C370.748 20.5273 369.914 21.2725 369.784 22.6738H373.858C373.735 21.2178 372.929 20.5273 371.842 20.5273Z" fill="#1F2328"/>
<path d="M360.74 26.9668V16.6719H361.93V20.7051H362.039C362.408 19.9258 363.099 19.4678 364.186 19.4678C365.84 19.4678 366.763 20.4453 366.763 22.1953V26.9668H365.573V22.4824C365.573 21.1562 365.026 20.5205 363.851 20.5205C362.675 20.5205 361.93 21.3135 361.93 22.6055V26.9668H360.74Z" fill="#1F2328"/>
<path d="M358.204 27.0215C356.687 27.0215 356.051 26.4609 356.051 25.0527V20.582H354.889V19.5977H356.051V17.6904H357.281V19.5977H358.895V20.582H357.281V24.752C357.281 25.6201 357.582 25.9688 358.348 25.9688C358.56 25.9688 358.676 25.9619 358.895 25.9414V26.9531C358.662 26.9941 358.437 27.0215 358.204 27.0215Z" fill="#1F2328"/>
<path d="M347.191 29.4756L347.786 25.5859H349.146L348.073 29.4756H347.191Z" fill="#1F2328"/>
<path d="M342.693 27.0967C341.053 27.0967 339.925 26.3037 339.788 25.0869H341.005C341.203 25.7021 341.791 26.1055 342.734 26.1055C343.726 26.1055 344.43 25.6338 344.43 24.9639V24.9502C344.43 24.4512 344.054 24.1025 343.145 23.8838L342.003 23.6104C340.622 23.2822 340 22.6807 340 21.6211V21.6143C340 20.3906 341.176 19.4678 342.741 19.4678C344.286 19.4678 345.359 20.2402 345.523 21.4434H344.354C344.197 20.8623 343.623 20.459 342.734 20.459C341.859 20.459 341.217 20.9102 341.217 21.5596V21.5732C341.217 22.0723 341.586 22.3867 342.454 22.5986L343.589 22.8721C344.977 23.207 345.646 23.8086 345.646 24.8613V24.875C345.646 26.1875 344.368 27.0967 342.693 27.0967Z" fill="#1F2328"/>
<path d="M335.174 27.0967C333.068 27.0967 331.797 25.6201 331.797 23.3096V23.3027C331.797 21.0264 333.096 19.4678 335.099 19.4678C337.102 19.4678 338.318 20.958 338.318 23.1592V23.624H333.014C333.048 25.1484 333.889 26.0371 335.201 26.0371C336.199 26.0371 336.814 25.5654 337.013 25.1211L337.04 25.0596H338.229L338.216 25.1143C337.963 26.1123 336.91 27.0967 335.174 27.0967ZM335.092 20.5273C333.998 20.5273 333.164 21.2725 333.034 22.6738H337.108C336.985 21.2178 336.179 20.5273 335.092 20.5273Z" fill="#1F2328"/>
<path d="M326.937 26.9668L324.209 19.5977H325.467L327.483 25.668H327.593L329.609 19.5977H330.867L328.14 26.9668H326.937Z" fill="#1F2328"/>
<path d="M322.021 18.1758C321.57 18.1758 321.201 17.8066 321.201 17.3555C321.201 16.9043 321.57 16.5352 322.021 16.5352C322.473 16.5352 322.842 16.9043 322.842 17.3555C322.842 17.8066 322.473 18.1758 322.021 18.1758ZM321.42 26.9668V19.5977H322.609V26.9668H321.42Z" fill="#1F2328"/>
<path d="M315.896 29.5645C314.119 29.5645 312.984 28.7646 312.8 27.5547L312.813 27.5479H314.044L314.051 27.5547C314.181 28.1152 314.837 28.5117 315.896 28.5117C317.216 28.5117 318.002 27.8896 318.002 26.8027V25.3125H317.893C317.428 26.126 316.594 26.584 315.582 26.584C313.675 26.584 312.492 25.1074 312.492 23.043V23.0293C312.492 20.9648 313.682 19.4678 315.609 19.4678C316.648 19.4678 317.455 19.9805 317.906 20.8145H317.988V19.5977H319.178V26.8643C319.178 28.5117 317.906 29.5645 315.896 29.5645ZM315.842 25.5312C317.209 25.5312 318.029 24.5059 318.029 23.043V23.0293C318.029 21.5664 317.202 20.5205 315.842 20.5205C314.475 20.5205 313.709 21.5664 313.709 23.0293V23.043C313.709 24.5059 314.475 25.5312 315.842 25.5312Z" fill="#1F2328"/>
<path d="M306.162 29.5508C306.005 29.5508 305.8 29.5371 305.636 29.5098V28.5322C305.779 28.5596 305.964 28.5664 306.128 28.5664C306.805 28.5664 307.215 28.2588 307.481 27.4111L307.618 26.9736L304.891 19.5977H306.162L308.186 25.6611H308.295L310.312 19.5977H311.562L308.685 27.418C308.076 29.0723 307.468 29.5508 306.162 29.5508Z" fill="#1F2328"/>
<path d="M299.634 27.1992C296.954 27.1992 295.279 25.2168 295.279 22.0449V22.0312C295.279 18.8525 296.947 16.8701 299.627 16.8701C301.705 16.8701 303.325 18.1758 303.619 20.0693L303.612 20.083H302.375L302.368 20.0693C302.04 18.8047 300.987 18.0049 299.627 18.0049C297.733 18.0049 296.544 19.5635 296.544 22.0312V22.0449C296.544 24.5127 297.733 26.0645 299.634 26.0645C301.008 26.0645 302.054 25.3604 302.361 24.2256L302.375 24.2119H303.619V24.2256C303.291 26.0303 301.732 27.1992 299.634 27.1992Z" fill="#1F2328"/>
<path d="M286.994 26.9668V20.582H285.771V19.5977H286.994V18.7773C286.994 17.3076 287.732 16.6035 289.134 16.6035C289.421 16.6035 289.681 16.624 289.927 16.6719V17.6221C289.783 17.5947 289.585 17.5879 289.373 17.5879C288.525 17.5879 288.184 18.0049 288.184 18.8115V19.5977H289.858V20.582H288.184V26.9668H286.994Z" fill="#1F2328"/>
<path d="M281.259 27.0967C279.16 27.0967 277.861 25.6475 277.861 23.2891V23.2754C277.861 20.9102 279.16 19.4678 281.259 19.4678C283.357 19.4678 284.656 20.9102 284.656 23.2754V23.2891C284.656 25.6475 283.357 27.0967 281.259 27.0967ZM281.259 26.0439C282.653 26.0439 283.439 25.0254 283.439 23.2891V23.2754C283.439 21.5322 282.653 20.5205 281.259 20.5205C279.864 20.5205 279.078 21.5322 279.078 23.2754V23.2891C279.078 25.0254 279.864 26.0439 281.259 26.0439Z" fill="#1F2328"/>
<path d="M271.825 27.0215C270.308 27.0215 269.672 26.4609 269.672 25.0527V20.582H268.51V19.5977H269.672V17.6904H270.902V19.5977H272.516V20.582H270.902V24.752C270.902 25.6201 271.203 25.9688 271.969 25.9688C272.181 25.9688 272.297 25.9619 272.516 25.9414V26.9531C272.283 26.9941 272.058 27.0215 271.825 27.0215Z" fill="#1F2328"/>
<path d="M263.738 26.9668V19.5977H264.928V20.6914H265.037C265.317 19.9189 266.008 19.4678 267.006 19.4678C267.231 19.4678 267.484 19.4951 267.601 19.5156V20.6709C267.354 20.6299 267.129 20.6025 266.869 20.6025C265.734 20.6025 264.928 21.3203 264.928 22.4004V26.9668H263.738Z" fill="#1F2328"/>
<path d="M258.037 27.0967C256.636 27.0967 255.576 26.249 255.576 24.9092V24.8955C255.576 23.583 256.547 22.8242 258.263 22.7217L260.375 22.5918V21.9219C260.375 21.0127 259.821 20.5205 258.721 20.5205C257.839 20.5205 257.258 20.8486 257.066 21.4229L257.06 21.4434H255.87L255.877 21.4023C256.068 20.2471 257.189 19.4678 258.762 19.4678C260.56 19.4678 261.564 20.3906 261.564 21.9219V26.9668H260.375V25.8799H260.266C259.801 26.666 259.028 27.0967 258.037 27.0967ZM256.793 24.8818C256.793 25.627 257.429 26.0645 258.283 26.0645C259.493 26.0645 260.375 25.2715 260.375 24.2188V23.5488L258.406 23.6719C257.285 23.7402 256.793 24.1367 256.793 24.8682V24.8818Z" fill="#1F2328"/>
<path d="M247.469 29.4277V19.5977H248.658V20.7734H248.768C249.219 19.9531 250.039 19.4678 251.064 19.4678C252.931 19.4678 254.154 20.9785 254.154 23.2754V23.2891C254.154 25.5996 252.938 27.0967 251.064 27.0967C250.053 27.0967 249.171 26.5908 248.768 25.8047H248.658V29.4277H247.469ZM250.791 26.0439C252.138 26.0439 252.938 25.0049 252.938 23.2891V23.2754C252.938 21.5596 252.138 20.5205 250.791 20.5205C249.451 20.5205 248.631 21.5732 248.631 23.2754V23.2891C248.631 24.9912 249.451 26.0439 250.791 26.0439Z" fill="#1F2328"/>
<path d="M238.732 27.0967C237.092 27.0967 235.964 26.3037 235.827 25.0869H237.044C237.242 25.7021 237.83 26.1055 238.773 26.1055C239.765 26.1055 240.469 25.6338 240.469 24.9639V24.9502C240.469 24.4512 240.093 24.1025 239.184 23.8838L238.042 23.6104C236.661 23.2822 236.039 22.6807 236.039 21.6211V21.6143C236.039 20.3906 237.215 19.4678 238.78 19.4678C240.325 19.4678 241.398 20.2402 241.562 21.4434H240.394C240.236 20.8623 239.662 20.459 238.773 20.459C237.898 20.459 237.256 20.9102 237.256 21.5596V21.5732C237.256 22.0723 237.625 22.3867 238.493 22.5986L239.628 22.8721C241.016 23.207 241.686 23.8086 241.686 24.8613V24.875C241.686 26.1875 240.407 27.0967 238.732 27.0967Z" fill="#1F2328"/>
<path d="M233.373 18.1758C232.922 18.1758 232.553 17.8066 232.553 17.3555C232.553 16.9043 232.922 16.5352 233.373 16.5352C233.824 16.5352 234.193 16.9043 234.193 17.3555C234.193 17.8066 233.824 18.1758 233.373 18.1758ZM232.771 26.9668V19.5977H233.961V26.9668H232.771Z" fill="#1F2328"/>
<path d="M223.475 26.9668V19.5977H224.664V20.6914H224.773C225.054 19.9189 225.744 19.4678 226.742 19.4678C226.968 19.4678 227.221 19.4951 227.337 19.5156V20.6709C227.091 20.6299 226.865 20.6025 226.605 20.6025C225.471 20.6025 224.664 21.3203 224.664 22.4004V26.9668H223.475Z" fill="#1F2328"/>
<path d="M218.484 27.0967C216.379 27.0967 215.107 25.6201 215.107 23.3096V23.3027C215.107 21.0264 216.406 19.4678 218.409 19.4678C220.412 19.4678 221.629 20.958 221.629 23.1592V23.624H216.324C216.358 25.1484 217.199 26.0371 218.512 26.0371C219.51 26.0371 220.125 25.5654 220.323 25.1211L220.351 25.0596H221.54L221.526 25.1143C221.273 26.1123 220.221 27.0967 218.484 27.0967ZM218.402 20.5273C217.309 20.5273 216.475 21.2725 216.345 22.6738H220.419C220.296 21.2178 219.489 20.5273 218.402 20.5273Z" fill="#1F2328"/>
<path d="M210.35 26.9668V19.5977H211.539V20.6914H211.648C211.929 19.9189 212.619 19.4678 213.617 19.4678C213.843 19.4678 214.096 19.4951 214.212 19.5156V20.6709C213.966 20.6299 213.74 20.6025 213.48 20.6025C212.346 20.6025 211.539 21.3203 211.539 22.4004V26.9668H210.35Z" fill="#1F2328"/>
<path d="M204.648 27.0967C203.247 27.0967 202.188 26.249 202.188 24.9092V24.8955C202.188 23.583 203.158 22.8242 204.874 22.7217L206.986 22.5918V21.9219C206.986 21.0127 206.433 20.5205 205.332 20.5205C204.45 20.5205 203.869 20.8486 203.678 21.4229L203.671 21.4434H202.481L202.488 21.4023C202.68 20.2471 203.801 19.4678 205.373 19.4678C207.171 19.4678 208.176 20.3906 208.176 21.9219V26.9668H206.986V25.8799H206.877C206.412 26.666 205.64 27.0967 204.648 27.0967ZM203.404 24.8818C203.404 25.627 204.04 26.0645 204.895 26.0645C206.104 26.0645 206.986 25.2715 206.986 24.2188V23.5488L205.018 23.6719C203.896 23.7402 203.404 24.1367 203.404 24.8682V24.8818Z" fill="#1F2328"/>
<path d="M197.635 27.0967C195.529 27.0967 194.258 25.6201 194.258 23.3096V23.3027C194.258 21.0264 195.557 19.4678 197.56 19.4678C199.562 19.4678 200.779 20.958 200.779 23.1592V23.624H195.475C195.509 25.1484 196.35 26.0371 197.662 26.0371C198.66 26.0371 199.275 25.5654 199.474 25.1211L199.501 25.0596H200.69L200.677 25.1143C200.424 26.1123 199.371 27.0967 197.635 27.0967ZM197.553 20.5273C196.459 20.5273 195.625 21.2725 195.495 22.6738H199.569C199.446 21.2178 198.64 20.5273 197.553 20.5273Z" fill="#1F2328"/>
<path d="M185.576 26.9668V17.1025H189.35C191.161 17.1025 192.269 18.0527 192.269 19.5566V19.5703C192.269 20.5889 191.517 21.5186 190.566 21.6895V21.7988C191.913 21.9697 192.768 22.8926 192.768 24.1914V24.2051C192.768 25.9346 191.523 26.9668 189.425 26.9668H185.576ZM189.09 18.1895H186.807V21.3545H188.775C190.266 21.3545 191.024 20.8213 191.024 19.7822V19.7686C191.024 18.7705 190.313 18.1895 189.09 18.1895ZM189.124 22.4141H186.807V25.8799H189.24C190.724 25.8799 191.503 25.2783 191.503 24.1436V24.1299C191.503 22.9951 190.696 22.4141 189.124 22.4141Z" fill="#1F2328"/>
<defs>
<linearGradient id="paint0_linear_38_47" x1="36.4707" y1="-7.73627" x2="49.0325" y2="38.2104" gradientUnits="userSpaceOnUse">
<stop offset="0.075" stop-color="#422AB6"/>
<stop offset="0.82" stop-color="#47FFB9"/>
</linearGradient>
</defs>
</svg>
