<svg width="543" height="450" viewBox="0 0 543 450" fill="none" xmlns="http://www.w3.org/2000/svg">
<g clip-path="url(#clip0_809:402)">
<path d="M77.686 226.51L87.2188 236.219C89.0062 237.985 91.0914 238.867 93.4746 238.867C93.7725 238.867 94.0704 238.867 94.3683 238.867C96.1557 238.573 97.9431 237.985 99.4326 236.513C101.22 235.042 102.114 232.689 102.114 230.629C102.114 228.275 101.22 226.216 99.7305 224.45L89.8999 214.447C86.3251 219.154 82.1545 223.274 77.686 226.51Z" fill="url(#paint0_linear_809:402)"/>
<path d="M203.801 119.875L213.553 147.011C214.735 150.291 217.986 152.677 221.533 152.677C222.419 152.677 223.601 152.378 224.488 152.08C228.921 150.589 231.285 145.52 229.512 141.047L219.759 114.209C214.735 116.893 209.416 118.682 203.801 119.875Z" fill="url(#paint1_linear_809:402)"/>
<path d="M355.793 112.408L344.256 143.764C342.737 148.201 344.863 153.23 349.417 154.709C350.328 155.005 351.542 155.301 352.453 155.301H352.757C356.4 155.301 359.436 152.934 360.651 149.68L372.188 118.62C368.545 117.733 364.902 116.845 361.258 115.366C359.436 114.183 357.615 113.295 355.793 112.408Z" fill="url(#paint2_linear_809:402)"/>
<path d="M464.535 269.049C465.127 269.049 465.422 269.049 466.013 269.049C468.673 269.049 471.037 267.834 472.81 265.709L483.154 252.653C478.13 249.617 473.697 245.67 470.151 240.812L459.216 254.475C456.261 258.118 456.852 263.887 460.398 266.923C461.58 268.138 463.058 268.745 464.535 269.049Z" fill="url(#paint3_linear_809:402)"/>
<path d="M467.036 310.976C456.506 307.047 445.074 305.536 433.942 306.443C422.81 307.349 411.678 310.976 401.449 316.416C400.245 317.021 398.741 316.718 398.139 315.509C397.538 314.3 397.839 313.092 398.741 312.185C402.953 308.86 407.466 306.14 412.28 303.723V290.122C412.28 218.797 354.515 160.77 283.512 160.77C223.941 160.77 172.795 200.966 158.354 258.389C162.566 259.9 166.778 261.713 170.689 263.829C178.511 267.758 185.732 272.896 192.351 278.94C198.669 284.985 204.385 291.634 208.898 299.189C210.102 301.305 209.5 303.723 207.394 304.931C205.589 306.14 203.182 305.536 201.978 304.025V304.025C196.864 297.678 191.448 292.238 185.13 287.402C179.113 282.567 172.193 278.336 165.274 275.313C151.133 268.967 135.488 265.944 120.144 267.153C104.801 268.06 89.7576 273.5 76.8206 281.66C70.5025 285.891 64.4853 291.029 59.3707 296.771C53.9552 302.514 49.7431 308.86 46.1328 315.812C31.9924 343.314 32.5941 378.07 49.1414 404.364C56.9638 417.662 68.3965 428.542 81.6343 436.4C94.8722 444.258 110.216 448.187 125.861 448.489V448.489V448.489L442.366 450V450V450C464.329 450 485.991 439.422 498.928 421.591C512.466 404.062 516.378 380.186 510.36 358.728C504.644 336.967 488.097 318.532 467.036 310.976Z" fill="url(#paint4_linear_809:402)"/>
<path d="M167.935 102.341C174.597 105.066 181.258 106.58 188.222 106.58C209.719 106.58 229.098 93.5602 237.576 73.8793C248.779 46.6287 236.062 15.442 208.811 4.23897C202.453 1.51392 195.489 0 188.525 0C167.027 0 147.649 13.0197 139.171 32.7007C133.721 45.7204 133.721 60.254 139.171 73.5765C144.621 86.5962 154.916 96.8908 167.935 102.341Z" fill="#9DACE3"/>
<path d="M366.341 102.341C373.002 105.066 379.664 106.58 386.628 106.58C408.125 106.58 427.503 93.5602 435.981 73.8793C447.184 46.6287 434.467 15.442 407.217 4.23897C400.556 1.51392 393.894 0 386.93 0C365.433 0 346.055 13.0197 337.577 32.7007C326.374 59.9512 339.091 91.1379 366.341 102.341Z" fill="#9DACE3"/>
<path d="M537.372 191.429C532.539 183.575 524.987 177.835 515.924 175.418C513.206 174.814 510.185 174.21 507.466 174.21C491.456 174.21 477.56 185.085 473.633 200.491C469.102 219.22 480.279 237.949 499.008 242.782C501.727 243.386 504.747 243.99 507.466 243.99C523.476 243.99 537.372 233.116 541.299 217.71C543.716 208.949 542.205 199.585 537.372 191.429Z" fill="#9DACE3"/>
<path d="M86.2881 191.862C92.0588 168.475 77.784 144.482 54.3977 138.711C50.7531 137.8 47.1084 137.496 43.7675 137.496C23.7221 137.496 6.10647 151.163 1.24697 170.601C-1.48649 181.839 0.335817 193.684 6.10647 203.707C12.1808 213.729 21.5961 221.019 33.1374 223.752C36.782 224.663 40.4266 224.967 43.7675 224.967C64.1167 225.271 81.4286 211.603 86.2881 191.862Z" fill="#9DACE3"/>
</g>
<defs>
<linearGradient id="paint0_linear_809:402" x1="77.5693" y1="239.01" x2="101.961" y2="239.01" gradientUnits="userSpaceOnUse">
<stop stop-color="#00A9E2"/>
<stop offset="0.1882" stop-color="#1981D7"/>
<stop offset="0.4572" stop-color="#394DC8"/>
<stop offset="0.6919" stop-color="#5027BE"/>
<stop offset="0.8802" stop-color="#5F10B7"/>
<stop offset="0.9987" stop-color="#6408B5"/>
</linearGradient>
<linearGradient id="paint1_linear_809:402" x1="203.696" y1="152.835" x2="230.156" y2="152.835" gradientUnits="userSpaceOnUse">
<stop stop-color="#00A9E2"/>
<stop offset="0.1882" stop-color="#1981D7"/>
<stop offset="0.4572" stop-color="#394DC8"/>
<stop offset="0.6919" stop-color="#5027BE"/>
<stop offset="0.8802" stop-color="#5F10B7"/>
<stop offset="0.9987" stop-color="#6408B5"/>
</linearGradient>
<linearGradient id="paint2_linear_809:402" x1="343.607" y1="155.511" x2="372.41" y2="155.511" gradientUnits="userSpaceOnUse">
<stop stop-color="#00A9E2"/>
<stop offset="0.1882" stop-color="#1981D7"/>
<stop offset="0.4572" stop-color="#394DC8"/>
<stop offset="0.6919" stop-color="#5027BE"/>
<stop offset="0.8802" stop-color="#5F10B7"/>
<stop offset="0.9987" stop-color="#6408B5"/>
</linearGradient>
<linearGradient id="paint3_linear_809:402" x1="457.352" y1="269.144" x2="483.093" y2="269.144" gradientUnits="userSpaceOnUse">
<stop stop-color="#00A9E2"/>
<stop offset="0.1882" stop-color="#1981D7"/>
<stop offset="0.4572" stop-color="#394DC8"/>
<stop offset="0.6919" stop-color="#5027BE"/>
<stop offset="0.8802" stop-color="#5F10B7"/>
<stop offset="0.9987" stop-color="#6408B5"/>
</linearGradient>
<linearGradient id="paint4_linear_809:402" x1="36.4827" y1="449.768" x2="513.46" y2="449.768" gradientUnits="userSpaceOnUse">
<stop stop-color="#00A9E2"/>
<stop offset="0.1882" stop-color="#1981D7"/>
<stop offset="0.4572" stop-color="#394DC8"/>
<stop offset="0.6919" stop-color="#5027BE"/>
<stop offset="0.8802" stop-color="#5F10B7"/>
<stop offset="0.9987" stop-color="#6408B5"/>
</linearGradient>
<clipPath id="clip0_809:402">
<rect width="542.433" height="450" fill="white"/>
</clipPath>
</defs>
</svg>
