<svg viewBox="0 0 163 163" xmlns="http://www.w3.org/2000/svg"><defs><linearGradient id="a" x1="81.333" x2="81.333" gradientUnits="userSpaceOnUse" y1=".451" y2="162.263"><stop offset="0%" stop-color="#A46EF7"/><stop offset="100%" stop-color="#6E20E6"/></linearGradient></defs><path fill="url(#a)" d="M81.33 162.26c44.72 0 80.97-36.23 80.97-80.91C162.3 36.66 126.04.44 81.32.44 36.59.44.34 36.66.34 81.34c0 44.68 36.25 80.9 80.97 80.9Z"/><g fill="#C4C4C4"><path d="M97.17 43.52c-1.07-6.58 3.38-12.75 9.96-13.82 6.57-1.07 12.75 3.38 13.82 9.95 1.06 6.57-3.39 12.74-9.97 13.81 -6.58 1.06-12.78-3.39-13.83-9.96Z"/><path d="M41.82 43.52c-1.07-6.58 3.38-12.75 9.96-13.82 6.57-1.07 12.75 3.38 13.82 9.95 1.06 6.57-3.39 12.74-9.97 13.81 -6.58 1.06-12.78-3.39-13.83-9.96Z"/><path d="M99.41 160.21h.01c10.56-2.42 20.33-6.91 28.88-13l-3.13-2.32 -43.05-16.9 14.45 26.37c1.03 1.9 1.95 3.83 2.78 5.82l.01.01Z"/></g><path fill="#F5F5F5" d="M105.911 158.44c32.709-10.4 56.4-40.99 56.4-77.12 0-7.6-1.06-14.92-2.99-21.89h-39.253c-4.25-10.46-14.51-17.85-26.52-17.85h-22.8c-15.8 0-28.61 12.79-28.61 28.57v10.19c0 8.42 3.63 15.98 9.45 21.21l37.03 42.43c4.99 5.72 10.83 10.56 17.26 14.43Z"/><path fill="#FFF" d="M112.02 67.39c.86 1.63 2.57 2.65 4.4 2.65h45.09c-.51-3.62-1.26-7.16-2.22-10.6h-39.26c-4.25-10.46-14.51-17.85-26.52-17.85h-22.8c-12.38 0-22.91 7.84-26.9 18.81 5.15-5.09 12.25-8.23 20.06-8.23h22.79c10.95 0 20.47 6.15 25.27 15.19h.03Z"/><path fill="#E9E9E9" d="M105.91 158.44c7.76-2.47 15.01-6.08 21.57-10.63 -26.13-14.7-57.34-49.37-85.31-77.66v10.19c0 8.42 3.63 15.98 9.45 21.21l37.03 42.438c4.99 5.72 10.83 10.56 17.26 14.43h-.02Z"/><g fill="#0C0C0C"><path d="M90.53 81.54c0 3.83-3.13 6.95-6.97 6.95h-4.35c-3.85 0-6.97-3.12-6.97-6.96s3.12-6.96 6.96-6.96h4.34c3.84 0 6.96 3.11 6.96 6.95Z"/><path d="M93.88 66.34c0-1.86 1.5-3.34 3.33-3.34s3.33 1.5 3.33 3.33 -1.51 3.33-3.34 3.33c-1.84 0-3.34-1.51-3.34-3.34Z"/><path d="M63.6 66.34c0-1.86 1.5-3.34 3.33-3.34s3.33 1.5 3.33 3.33 -1.51 3.33-3.34 3.33c-1.84 0-3.34-1.51-3.34-3.34Z"/></g></svg>